<svg width="64" height="64" viewBox="0 0 64 64" fill="none" xmlns="http://www.w3.org/2000/svg">
<g clip-path="url(#clip0_691_3632)">
<path d="M16.595 11.0463H15.2896C13.1102 11.0463 11.3433 9.27943 11.3433 7.09999V4.97671C11.3433 4.52108 11.7126 4.15182 12.1682 4.15182H12.6486C14.8281 4.15182 16.595 5.91869 16.595 8.09813V11.0463Z" fill="#FEE45A"/>
<path d="M12.7028 14.7161L13.3084 15.8725C14.3196 17.8032 16.7046 18.5486 18.6352 17.5373L20.5161 16.5522C20.9196 16.3407 21.0754 15.8423 20.8641 15.4387L20.6411 15.013C19.6299 13.0823 17.2449 12.337 15.3143 13.3482L12.7028 14.7161Z" fill="#FEE45A"/>
<path d="M9.61013 18.568H8.30467C6.12523 18.568 4.35837 16.8011 4.35837 14.6217V12.4984C4.35837 12.0428 4.72763 11.6735 5.18326 11.6735H5.66369C7.84313 11.6735 9.61 13.4404 9.61 15.6198V18.568H9.61013Z" fill="#FEE45A"/>
<path d="M5.68746 29.8575H4.38201C2.20257 29.8575 0.435699 28.0906 0.435699 25.9111V23.7879C0.435699 23.3322 0.804959 22.963 1.26059 22.963H1.74102C3.92046 22.963 5.68733 24.7298 5.68733 26.9093V29.8575H5.68746Z" fill="#FEE45A"/>
<path d="M5.81638 32.5023L7.05525 32.9137C9.12364 33.6006 11.3573 32.4806 12.0442 30.4122L12.7133 28.3971C12.8569 27.9648 12.6228 27.4978 12.1904 27.3543L11.7344 27.2028C9.66603 26.516 7.43235 27.636 6.7455 29.7044L5.81638 32.5023Z" fill="#FEE45A"/>
<path d="M8.94873 45.2039L10.2442 45.0428C12.407 44.7741 13.9425 42.8029 13.6737 40.64L13.4118 38.5329C13.3557 38.0808 12.9436 37.7598 12.4915 37.816L12.0146 37.8752C9.85176 38.144 8.31624 40.1152 8.58512 42.2781L8.94873 45.2039Z" fill="#FEE45A"/>
<path d="M7.1104 41.3072L5.88913 41.7682C3.85004 42.538 1.57305 41.5091 0.803295 39.4701L0.0533366 37.4838C-0.10758 37.0576 0.107447 36.5816 0.533772 36.4207L0.983233 36.2511C3.02232 35.4813 5.29932 36.5102 6.06907 38.5491L7.1104 41.3072Z" fill="#FEE45A"/>
<path d="M12.1444 49.8392L11.2213 50.7623C9.68016 52.3035 7.18146 52.3035 5.64042 50.7623L4.13909 49.261C3.817 48.9389 3.817 48.4166 4.13909 48.0945L4.47879 47.7548C6.01996 46.2136 8.51866 46.2136 10.0597 47.7548L12.1444 49.8392Z" fill="#FEE45A"/>
<path d="M20.3519 56.2007L19.7147 57.34C18.6508 59.2422 16.2463 59.9217 14.3441 58.8579L12.4909 57.8214C12.0933 57.5991 11.9513 57.0964 12.1736 56.6989L12.4082 56.2795C13.4721 54.3773 15.8766 53.6977 17.7788 54.7616L20.3519 56.2007Z" fill="#FEE45A"/>
<path d="M24.1909 57.7038L24.8436 56.5733C25.9334 54.6857 25.2866 52.2722 23.3991 51.1825L21.5603 50.1208C21.1658 49.8931 20.6613 50.0282 20.4335 50.4227L20.1933 50.8388C19.1036 52.7263 19.7503 55.1398 21.6379 56.2296L24.1909 57.7038Z" fill="#FEE45A"/>
<path d="M47.4052 11.0463H48.7105C50.8899 11.0463 52.6568 9.27943 52.6568 7.09999V4.97671C52.6568 4.52108 52.2875 4.15182 51.8319 4.15182H51.3515C49.172 4.15182 47.4052 5.91869 47.4052 8.09813V11.0463Z" fill="#FEE45A"/>
<path d="M51.2972 14.7161L50.6916 15.8725C49.6804 17.8032 47.2954 18.5486 45.3648 17.5373L43.4839 16.5522C43.0803 16.3407 42.9246 15.8423 43.136 15.4387L43.3589 15.013C44.3701 13.0823 46.7551 12.337 48.6857 13.3482L51.2972 14.7161Z" fill="#FEE45A"/>
<path d="M54.3899 18.568H55.6952C57.8746 18.568 59.6415 16.8011 59.6415 14.6217V12.4984C59.6415 12.0428 59.2722 11.6735 58.8166 11.6735H58.3362C56.1567 11.6735 54.3899 13.4404 54.3899 15.6198V18.568Z" fill="#FEE45A"/>
<path d="M58.3127 29.8575H59.618C61.7974 29.8575 63.5643 28.0906 63.5643 25.9111V23.7879C63.5643 23.3322 63.195 22.963 62.7394 22.963H62.259C60.0795 22.963 58.3127 24.7298 58.3127 26.9093V29.8575Z" fill="#FEE45A"/>
<path d="M58.1836 32.5023L56.9448 32.9137C54.8764 33.6006 52.6427 32.4806 51.9558 30.4122L51.2867 28.3971C51.1431 27.9648 51.3772 27.4978 51.8096 27.3543L52.2656 27.2028C54.334 26.516 56.5677 27.636 57.2545 29.7044L58.1836 32.5023Z" fill="#FEE45A"/>
<path d="M55.0513 45.2039L53.7558 45.043C51.593 44.7742 50.0575 42.803 50.3263 40.6401L50.5881 38.533C50.6443 38.0809 51.0564 37.76 51.5085 37.8161L51.9854 37.8754C54.1482 38.1441 55.6837 40.1153 55.4149 42.2782L55.0513 45.2039Z" fill="#FEE45A"/>
<path d="M56.8896 41.3072L58.1109 41.7682C60.1499 42.538 62.4269 41.5091 63.1967 39.4701L63.9467 37.4838C64.1076 37.0576 63.8925 36.5816 63.4662 36.4207L63.0168 36.2511C60.9777 35.4813 58.7007 36.5102 57.9309 38.5491L56.8896 41.3072Z" fill="#FEE45A"/>
<path d="M51.8557 49.8392L52.7788 50.7623C54.3199 52.3035 56.8186 52.3035 58.3597 50.7623L59.861 49.261C60.1831 48.9389 60.1831 48.4166 59.861 48.0945L59.5213 47.7548C57.9802 46.2136 55.4814 46.2136 53.9404 47.7548L51.8557 49.8392Z" fill="#FEE45A"/>
<path d="M43.648 56.2007L44.2853 57.34C45.3492 59.2422 47.7537 59.9217 49.6559 58.8579L51.509 57.8214C51.9067 57.5991 52.0487 57.0964 51.8264 56.6989L51.5918 56.2795C50.5279 54.3773 48.1234 53.6977 46.2212 54.7616L43.648 56.2007Z" fill="#FEE45A"/>
<path d="M39.8091 57.7038L39.1564 56.5733C38.0666 54.6857 38.7134 52.2722 40.6009 51.1825L42.4396 50.1208C42.8342 49.8931 43.3387 50.0282 43.5664 50.4227L43.8067 50.8388C44.8964 52.7263 44.2497 55.1398 42.3621 56.2296L39.8091 57.7038Z" fill="#FEE45A"/>
<path d="M33.6142 15.3705L36.8441 21.9151C37.1063 22.4463 37.613 22.8145 38.1994 22.8997L45.4217 23.9492C46.8981 24.1637 47.4875 25.978 46.4194 27.0194L41.1932 32.1138C40.7689 32.5272 40.5753 33.1231 40.6755 33.707L41.9092 40.9002C42.1614 42.3705 40.618 43.4919 39.2975 42.7976L32.8376 39.4014C32.3132 39.1257 31.6868 39.1257 31.1624 39.4014L24.7025 42.7976C23.382 43.4918 21.8386 42.3705 22.0908 40.9002L23.3245 33.707C23.4246 33.1231 23.2311 32.5272 22.8068 32.1138L17.5806 27.0194C16.5123 25.9781 17.1019 24.1638 18.5783 23.9492L25.8006 22.8997C26.3868 22.8145 26.8937 22.4463 27.1559 21.9151L30.3858 15.3705C31.0462 14.0326 32.9538 14.0326 33.6142 15.3705Z" fill="#FED402"/>
<path d="M29.669 35.6401C29.7691 35.0562 29.5756 34.4604 29.1513 34.0469L23.9251 28.9526C22.8568 27.9113 23.4464 26.097 24.9228 25.8823L32.1451 24.8329C32.7313 24.7477 33.2382 24.3795 33.5004 23.8483L35.6493 19.4941L33.614 15.3703C32.9538 14.0325 31.0461 14.0325 30.3858 15.3703L27.1559 21.915C26.8937 22.4462 26.3869 22.8144 25.8006 22.8996L18.5783 23.949C17.1019 24.1635 16.5124 25.9778 17.5806 27.0193L22.8068 32.1136C23.2311 32.5271 23.4246 33.1229 23.3245 33.7068L22.0908 40.9C21.8386 42.3704 23.382 43.4918 24.7025 42.7975L28.812 40.6369L29.669 35.6401Z" fill="#FAC600"/>
<path d="M32 59.8482C16.9597 59.8482 4.72351 47.612 4.72351 32.5717C4.72351 26.9329 6.42984 21.5214 9.65794 16.9219C12.813 12.4266 17.1831 9.02134 22.2955 7.07428C22.7934 6.88483 23.3501 7.13456 23.5394 7.63196C23.7289 8.12949 23.4791 8.6864 22.9817 8.87585C18.2306 10.6853 14.169 13.8505 11.236 18.0293C8.23681 22.3026 6.65155 27.3312 6.65155 32.5716C6.65155 46.5488 18.0229 57.9201 32.0001 57.9201C45.9774 57.9201 57.3487 46.5488 57.3487 32.5716C57.3487 27.3312 55.7634 22.3027 52.7642 18.0293C49.8312 13.8504 45.7697 10.6853 41.0185 8.87585C40.521 8.6864 40.2714 8.12949 40.4608 7.63196C40.6503 7.13443 41.2072 6.8847 41.7047 7.07428C46.8172 9.02121 51.1872 12.4266 54.3423 16.9219C57.5704 21.5214 59.2767 26.9329 59.2767 32.5717C59.2765 47.612 47.0403 59.8482 32 59.8482Z" fill="#FED402"/>
</g>
<defs>
<clipPath id="clip0_691_3632">
<rect width="64" height="64" fill="white"/>
</clipPath>
</defs>
</svg>
