<svg width="64" height="64" viewBox="0 0 64 64" fill="none" xmlns="http://www.w3.org/2000/svg">
<path d="M29.905 4.782L28.415 7.603C28.362 7.704 28.264 7.775 28.152 7.794L25.008 8.34C24.143 8.49 23.432 9.107 23.16 9.942C22.889 10.777 23.102 11.694 23.713 12.324L25.936 14.614C26.016 14.696 26.053 14.81 26.037 14.923L25.584 18.081C25.459 18.951 25.826 19.818 26.537 20.334C27.247 20.85 28.185 20.931 28.973 20.544L31.837 19.137C31.94 19.087 32.06 19.087 32.163 19.137L35.027 20.544C35.815 20.931 36.753 20.85 37.463 20.334C38.174 19.818 38.541 18.951 38.416 18.081L37.963 14.923C37.947 14.81 37.984 14.696 38.064 14.614L40.287 12.324C40.898 11.694 41.111 10.777 40.84 9.942C40.568 9.107 39.857 8.49 38.992 8.34L35.848 7.794C35.736 7.775 35.638 7.704 35.585 7.603L34.095 4.782C33.684 4.005 32.878 3.52 32 3.52C31.122 3.52 30.316 4.005 29.905 4.782V4.782Z" fill="#FFB43F"/>
<path d="M56.659 14.128L53.61 15.069C53.501 15.103 53.382 15.084 53.289 15.019L50.68 13.181C49.962 12.676 49.023 12.609 48.24 13.007C47.458 13.406 46.96 14.205 46.947 15.083L46.9 18.274C46.898 18.388 46.844 18.495 46.752 18.563L44.199 20.477C43.496 21.003 43.142 21.876 43.28 22.743C43.417 23.611 44.023 24.331 44.854 24.615L47.874 25.645C47.982 25.682 48.067 25.767 48.104 25.875L49.135 28.895C49.418 29.726 50.139 30.332 51.006 30.47C51.873 30.607 52.746 30.253 53.272 29.55L55.186 26.997C55.254 26.905 55.361 26.851 55.476 26.849L58.666 26.802C59.544 26.789 60.343 26.291 60.742 25.509C61.141 24.726 61.074 23.787 60.568 23.069L58.731 20.461C58.665 20.367 58.646 20.249 58.68 20.139L59.621 17.091C59.88 16.251 59.654 15.338 59.032 14.717C58.411 14.096 57.498 13.869 56.659 14.128V14.128Z" fill="#FFB43F"/>
<path d="M4.379 17.091L5.32 20.139C5.354 20.249 5.335 20.367 5.269 20.461L3.432 23.069C2.926 23.787 2.859 24.726 3.258 25.509C3.657 26.291 4.456 26.789 5.334 26.802L8.524 26.849C8.639 26.851 8.746 26.905 8.814 26.997L10.728 29.55C11.254 30.253 12.127 30.607 12.994 30.47C13.861 30.332 14.582 29.726 14.865 28.895L15.896 25.875C15.933 25.767 16.018 25.682 16.126 25.645L19.146 24.615C19.977 24.331 20.583 23.611 20.72 22.743C20.858 21.876 20.504 21.003 19.801 20.477L17.248 18.564C17.156 18.495 17.102 18.388 17.1 18.274L17.053 15.083C17.04 14.205 16.542 13.406 15.76 13.007C14.977 12.609 14.038 12.676 13.32 13.181L10.711 15.018C10.618 15.084 10.499 15.103 10.39 15.069L7.341 14.128C6.502 13.869 5.589 14.096 4.968 14.717C4.346 15.338 4.12 16.251 4.379 17.091V17.091Z" fill="#FFB43F"/>
<path d="M32 60.48C42.3089 60.48 50.666 52.123 50.666 41.814C50.666 31.5051 42.3089 23.148 32 23.148C21.6911 23.148 13.334 31.5051 13.334 41.814C13.334 52.123 21.6911 60.48 32 60.48Z" fill="#FFC45C"/>
<path d="M39.186 43.464L24.807 43.49C23.821 43.49 22.894 43.985 22.342 44.809C21.79 45.634 21.685 46.68 22.063 47.597C23.649 51.521 27.503 54.297 32 54.297C36.494 54.297 40.347 51.524 41.961 47.608C42.343 46.682 42.237 45.627 41.68 44.795C41.123 43.963 40.187 43.464 39.186 43.464Z" fill="#354E5B"/>
<path d="M22.114 47.72C22.178 47.58 22.254 47.444 22.342 47.313C22.894 46.489 23.821 45.994 24.807 45.994L39.186 45.968C40.187 45.968 41.123 46.467 41.68 47.299C41.77 47.433 41.848 47.574 41.915 47.718C41.93 47.682 41.946 47.645 41.961 47.608C42.343 46.682 42.237 45.627 41.68 44.795C41.123 43.963 40.187 43.464 39.186 43.464L24.807 43.49C23.821 43.49 22.894 43.985 22.342 44.809C21.79 45.634 21.685 46.68 22.063 47.597C22.08 47.638 22.096 47.679 22.114 47.72V47.72Z" fill="#2A3F4A"/>
<path d="M23.215 38.06C23.28 37.644 23.601 37.357 23.965 37.101C24.172 36.955 24.42 36.874 24.677 36.784C25.03 36.66 25.42 36.607 25.817 36.631C26.145 36.611 26.468 36.642 26.771 36.726C26.988 36.786 27.201 36.838 27.391 36.937C27.899 37.201 28.342 37.541 28.419 38.06C28.419 38.338 28.644 38.564 28.922 38.564C29.2 38.564 29.426 38.338 29.426 38.06C29.562 37.137 29.089 36.267 28.332 35.587C27.875 35.177 27.281 34.893 26.639 34.73C26.373 34.663 26.096 34.642 25.817 34.632C25.444 34.647 25.075 34.688 24.729 34.798C24.189 34.969 23.688 35.222 23.295 35.576C22.536 36.26 22.067 37.135 22.208 38.06C22.208 38.338 22.434 38.564 22.712 38.564C22.989 38.564 23.215 38.338 23.215 38.06V38.06Z" fill="#354E5B"/>
<path d="M35.581 38.06C35.647 37.644 35.967 37.357 36.332 37.101C36.538 36.955 36.787 36.874 37.043 36.784C37.397 36.66 37.787 36.607 38.183 36.631C38.511 36.611 38.834 36.642 39.137 36.726C39.355 36.786 39.567 36.838 39.757 36.937C40.266 37.201 40.708 37.541 40.785 38.06C40.785 38.338 41.011 38.564 41.288 38.564C41.566 38.564 41.792 38.338 41.792 38.06C41.928 37.137 41.456 36.267 40.698 35.587C40.241 35.177 39.647 34.893 39.005 34.73C38.74 34.663 38.462 34.642 38.183 34.632C37.811 34.647 37.441 34.688 37.095 34.798C36.555 34.969 36.054 35.222 35.661 35.576C34.903 36.26 34.433 37.135 34.574 38.06C34.574 38.338 34.8 38.564 35.078 38.564C35.356 38.564 35.581 38.338 35.581 38.06V38.06Z" fill="#354E5B"/>
<path d="M25.796 51.367C25.618 51.811 25.779 52.318 26.18 52.578C27.857 53.666 29.855 54.297 32 54.297C34.144 54.297 36.142 53.666 37.82 52.581C38.222 52.321 38.383 51.813 38.205 51.369C37.316 49.149 34.887 47.509 32 47.509C29.114 47.509 26.686 49.148 25.796 51.367V51.367Z" fill="#E40C5B"/>
</svg>
