<svg width="64" height="64" viewBox="0 0 64 64" fill="none" xmlns="http://www.w3.org/2000/svg">
<g clip-path="url(#clip0_691_3614)">
<path d="M64 32C64 49.5298 49.9045 63.7669 32.4288 63.9974C32.0353 64.0017 31.491 64.0017 30.7702 63.9768C13.6679 63.3304 0 49.2607 0 32C0 14.6994 13.7297 0.606519 30.8861 0.0193159C31.2557 0.00643863 31.6278 0 32 0C32.1378 0 31.9936 0 32.4288 0.00257545C49.9045 0.233078 64 14.4702 64 32Z" fill="#BBEC6C"/>
<path d="M64 32C64 49.5298 49 64.5 31.6586 63.9974C31.2651 64.0017 30.7207 64.0017 30 63.9768C46.6709 62.8655 60.3324 48.9465 60.3324 32C60.3324 15.0342 46.8113 1.10358 30.1159 0.0193194C30.4855 0.00644213 30.8576 3.5055e-06 31.2298 3.5055e-06C31.3676 3.5055e-06 31.2233 3.5062e-06 31.6586 0.00257896C49 -0.5 64 14.4702 64 32Z" fill="#A2E62E"/>
<path d="M4 32.296C4 24.9323 6.86751 18.0093 12.0746 12.8024C17.2816 7.5955 24.2046 4.72786 31.5682 4.72786C38.9318 4.72786 45.8548 7.59537 51.0618 12.8024C56.2687 18.0095 59.1363 24.9324 59.1363 32.296C59.1363 38.5857 56.9621 45.2531 53.0141 50.135C49.1253 54.9438 43.6792 58.3403 37.6791 59.6988C36.0336 60.0714 34.3977 58.5244 34.0251 56.879C33.6523 55.2334 34.6845 53.5976 36.3299 53.225C40.9964 52.1685 45.2344 49.5237 48.2634 45.7783C51.3796 41.925 53.0266 37.2629 53.0266 32.2961C53.0266 20.4637 43.4003 10.8376 31.568 10.8376C19.7358 10.8376 10.1095 20.4637 10.1095 32.296C10.1095 37.2718 11.7619 41.9404 14.8881 45.7972C17.9273 49.5467 22.1773 52.1886 26.8553 53.2361C28.5016 53.6048 29.5378 55.2389 29.1687 56.8845C28.8002 58.5309 27.1666 59.5666 25.5204 59.1979C19.5053 57.8509 14.0439 54.458 10.1419 49.6443C6.18115 44.758 4 38.597 4 32.296Z" fill="#A2E62E"/>
<path d="M59.1366 32.569C59.1366 38.8582 56.9629 45.011 53.0147 49.8927C49.1258 54.7011 43.68 58.0981 37.6792 59.4567C37.3933 59.5211 37.11 59.543 36.8319 59.5275C36.828 59.5262 36.8229 59.5262 36.819 59.5262C36.385 59.5005 35.9665 59.3807 35.5918 59.1837C35.2673 59.0163 34.975 58.7896 34.7303 58.5154L34.729 58.5141H34.7277C34.3929 58.1406 34.1444 57.677 34.0259 57.1517C33.6525 55.5059 34.6852 53.8705 36.3309 53.4971C40.9977 52.4411 45.2356 49.7962 48.2643 46.0502C51.3806 42.1973 53.0276 37.5357 53.0276 32.569C53.0276 20.736 43.4006 11.1103 31.5689 11.1103C19.736 11.1103 10.1103 20.736 10.1103 32.569C10.1103 37.5447 11.7624 42.2127 14.889 46.0695C17.9281 49.8193 22.1775 52.4618 26.8559 53.5087C28.5016 53.877 29.5382 55.5111 29.1699 57.1568C28.8003 58.8038 27.1675 59.8391 25.5205 59.4709C19.5055 58.1239 14.0443 54.7307 10.1425 49.9172C6.18141 45.0303 4 38.8698 4 32.569C4 25.2044 6.86777 18.2816 12.0753 13.0753C17.0962 8.05321 23.7151 5.20734 30.7847 5.0116C31.0448 5.00388 31.3062 5.00002 31.5689 5.00002C38.9322 5.00002 45.855 7.86778 51.0625 13.0753C56.2688 18.2816 59.1366 25.2044 59.1366 32.569Z" fill="#4FC123"/>
<path d="M26.6968 53.3986C22.0189 52.3511 17.7687 49.7092 14.7296 45.9597C11.6035 42.103 9.95095 37.4343 9.95095 32.4585C9.95095 21.1223 18.7875 11.8124 29.934 11.0516C29.4462 11.0184 28.9546 11 28.4585 11C16.6263 11 7 20.6263 7 32.4585C7 37.4343 8.65241 42.103 11.7786 45.9597C14.8178 49.7092 19.0678 52.3511 23.7459 53.3986C25.3921 53.7673 26.4283 55.4015 26.0593 57.047C25.8477 57.9921 25.2189 58.7352 24.4104 59.1277C24.7261 59.2105 25.0431 59.289 25.3619 59.3604C27.0082 59.7291 28.6418 58.6934 29.0103 57.047C29.3793 55.4015 28.343 53.7675 26.6968 53.3986Z" fill="#47A920"/>
<path d="M50.9693 13.0753C45.7618 7.86777 38.839 5 31.4757 5C31.213 5 30.9516 5.00386 30.6915 5.01159C30.4597 5.01803 30.2292 5.02833 30 5.03992C36.8095 5.39662 43.1606 8.21674 48.0179 13.0753C53.2254 18.2816 56.0932 25.2044 56.0932 32.5689C56.0932 38.8582 53.9182 45.0109 49.9701 49.8927C46.5903 54.0726 41.8587 57.178 36.7557 58.8118C35.4607 58.976 34.6775 58.5384 34.6371 58.5153C34.9509 58.8666 35.343 59.1387 35.7785 59.3128C36.0465 59.413 36.3306 59.5035 36.7387 59.5275C37.0168 59.5429 37.3001 59.521 37.586 59.4567C43.5868 58.0981 49.0326 54.7011 52.9215 49.8927C56.8697 45.0109 59.0434 38.8582 59.0434 32.5689C59.0434 25.2044 56.1756 18.2816 50.9693 13.0753Z" fill="#47A920"/>
<path d="M46.5129 26.1189C46.0214 25.9126 45.4549 26.1439 45.2486 26.6358L41.1499 36.4021C40.9435 36.8939 41.1749 37.46 41.6668 37.6664C41.7889 37.7175 41.9156 37.7419 42.0401 37.7419C42.4174 37.7419 42.7759 37.5192 42.9311 37.1495L47.0298 27.3832C47.2361 26.8914 47.0047 26.3254 46.5129 26.1189Z" fill="#0268B4"/>
<path d="M34.2507 26C32.1012 26 30.3524 27.7489 30.3524 29.8985V34.5886C30.3524 36.7381 32.1012 38.487 34.2507 38.487C36.4003 38.487 38.1492 36.7381 38.1492 34.5886V29.8985C38.1492 27.7489 36.4003 26 34.2507 26ZM36.2176 34.5888C36.2176 35.6733 35.3351 36.5555 34.2507 36.5555C33.1663 36.5555 32.2839 35.6732 32.2839 34.5888V29.8986C32.2839 28.8141 33.1663 27.9317 34.2507 27.9317C35.3351 27.9317 36.2176 28.8142 36.2176 29.8986V34.5888Z" fill="#0268B4"/>
<path d="M25.2779 26C23.1283 26 21.3795 27.7489 21.3795 29.8985V34.5886C21.3795 36.7381 23.1283 38.487 25.2779 38.487C27.4274 38.487 29.1763 36.7381 29.1763 34.5886V29.8985C29.1764 27.7489 27.4275 26 25.2779 26ZM27.2448 34.5888C27.2448 35.6733 26.3625 36.5555 25.2781 36.5555C24.1937 36.5555 23.3112 35.6732 23.3112 34.5888V29.8986C23.3112 28.8141 24.1937 27.9317 25.2781 27.9317C26.3625 27.9317 27.2448 28.8142 27.2448 29.8986V34.5888Z" fill="#0268B4"/>
<path d="M19.1621 26.2205H16.9658C16.4323 26.2205 16 26.6528 16 27.1863C16 27.7198 16.4323 28.1521 16.9658 28.1521H18.1963V37.4621C18.1963 37.9956 18.6286 38.4278 19.1621 38.4278C19.6956 38.4278 20.1279 37.9956 20.1279 37.4621V27.1863C20.1279 26.6529 19.6956 26.2205 19.1621 26.2205Z" fill="#0268B4"/>
<path d="M42.4645 27.1863C42.4645 26.5658 41.9615 26.0629 41.341 26.0629C40.7206 26.0629 40.2176 26.5658 40.2176 27.1863C40.2176 27.8067 40.7206 28.3098 41.341 28.3098C41.9615 28.3098 42.4645 27.8067 42.4645 27.1863Z" fill="#0268B4"/>
<path d="M46.8067 35.2356C46.1861 35.2356 45.6831 35.7386 45.6831 36.359C45.6831 36.9794 46.1861 37.4825 46.8067 37.4825C47.4271 37.4825 47.9301 36.9796 47.9301 36.359C47.9302 35.7386 47.4272 35.2356 46.8067 35.2356Z" fill="#0268B4"/>
</g>
<defs>
<clipPath id="clip0_691_3614">
<rect width="64" height="64" fill="white"/>
</clipPath>
</defs>
</svg>
