<svg width="200" height="200" viewBox="0 0 200 200" fill="none" xmlns="http://www.w3.org/2000/svg">
<path d="M45.4077 189.375C64.5315 189.375 80.0344 178.724 80.0344 165.585C80.0344 152.446 64.5315 141.795 45.4077 141.795C26.2838 141.795 10.7809 152.446 10.7809 165.585C10.7809 178.724 26.2838 189.375 45.4077 189.375Z" fill="#DAEBFF"/>
<path d="M31.2452 200C37.1881 200 42.0057 196.69 42.0057 192.607C42.0057 188.524 37.1881 185.214 31.2452 185.214C25.3024 185.214 20.4847 188.524 20.4847 192.607C20.4847 196.69 25.3024 200 31.2452 200Z" fill="#DAEBFF"/>
<path d="M108.366 167.44C124.914 167.44 138.329 164.13 138.329 160.047C138.329 155.964 124.914 152.654 108.366 152.654C91.8176 152.654 78.4026 155.964 78.4026 160.047C78.4026 164.13 91.8176 167.44 108.366 167.44Z" fill="#DAEBFF"/>
<path d="M200 173.212H3.79287V175.114H200V173.212Z" fill="#D3E2F9"/>
<path d="M25.7093 143.755C25.7093 143.755 23.4434 150.966 19.4132 153.645C15.3831 156.323 9.73138 152.948 6.5627 148.969C3.39401 144.989 0.319034 139.328 0.0126996 135.109C-0.292989 130.888 5.02133 132.553 5.02133 132.553C5.02133 132.553 2.67277 127.424 1.6956 123.762C0.718431 120.099 1.86299 116.277 5.07433 118.553C8.28567 120.828 8.28567 120.828 8.28567 120.828C8.28567 120.828 5.82336 112.856 5.86731 107.878C5.9119 102.9 7.74732 95.4333 11.2081 100.706C14.6689 105.98 15.0231 117.037 15.0231 117.037C15.0231 117.037 15.7928 112.325 16.8889 108.878C17.985 105.431 20.2611 105.877 21.3107 110.682C22.3602 115.486 22.7629 122.364 22.7629 122.364C22.7629 122.364 23.7659 117.057 25.4042 117.9C27.0419 118.744 27.9977 124.962 27.7224 131.066C27.4477 137.17 25.7093 143.755 25.7093 143.755Z" fill="#00B77B"/>
<path d="M24.9919 130.846C24.9919 130.846 24.8717 104.585 12.2861 95.2314C12.2861 95.2314 6.52586 117.287 15.2719 136.198C24.0179 155.108 22.2271 150.713 22.2271 150.713L24.9919 130.846Z" fill="#00D967"/>
<path d="M15.3934 107.516L22.5534 146.516" stroke="white" stroke-width="2" stroke-miterlimit="10" stroke-linecap="round" stroke-linejoin="round"/>
<path d="M121.552 125.767H95.1824V149.864H121.552V125.767Z" fill="#1E2889"/>
<path d="M134.344 149.634H82.3908V160.081H134.344V149.634Z" fill="#0542BF"/>
<path d="M164.001 127.797H52.7332C49.5148 127.797 46.9064 123.826 46.9064 118.927V8.86991C46.9064 3.97061 49.5154 0 52.7332 0H164.001C167.219 0 169.828 3.97159 169.828 8.86991V118.926C169.828 123.826 167.219 127.797 164.001 127.797Z" fill="#006DFE"/>
<path d="M160.353 122.788H56.3808C53.3956 122.788 50.9753 119.103 50.9753 114.559V13.2378C50.9753 8.6936 53.3956 5.00928 56.3808 5.00928H160.353C163.339 5.00928 165.759 8.6936 165.759 13.2378V114.559C165.759 119.104 163.339 122.788 160.353 122.788Z" fill="url(#paint0_linear_691_3787)"/>
<path d="M91.5006 17.8205H57.4194C56.6742 17.8205 56.07 16.9007 56.07 15.7663C56.07 14.632 56.6742 13.7122 57.4194 13.7122H91.5006C92.2458 13.7122 92.8501 14.632 92.8501 15.7663C92.8501 16.9007 92.2458 17.8205 91.5006 17.8205Z" fill="white"/>
<path d="M91.5006 26.7365H57.4194C56.6742 26.7365 56.07 25.8167 56.07 24.6824C56.07 23.548 56.6742 22.6282 57.4194 22.6282H91.5006C92.2458 22.6282 92.8501 23.548 92.8501 24.6824C92.8501 25.8167 92.2458 26.7365 91.5006 26.7365Z" fill="white"/>
<path d="M91.5006 35.6528H57.4194C56.6742 35.6528 56.07 34.7329 56.07 33.5986C56.07 32.4643 56.6742 31.5444 57.4194 31.5444H91.5006C92.2458 31.5444 92.8501 32.4643 92.8501 33.5986C92.8501 34.7329 92.2458 35.6528 91.5006 35.6528Z" fill="white"/>
<path d="M91.5006 44.5688H57.4194C56.6742 44.5688 56.07 43.6489 56.07 42.5146C56.07 41.3803 56.6742 40.4604 57.4194 40.4604H91.5006C92.2458 40.4604 92.8501 41.3803 92.8501 42.5146C92.8501 43.6489 92.2458 44.5688 91.5006 44.5688Z" fill="white"/>
<path d="M91.5006 53.4849H57.4194C56.6742 53.4849 56.07 52.5651 56.07 51.4308C56.07 50.2965 56.6742 49.3767 57.4194 49.3767H91.5006C92.2458 49.3767 92.8501 50.2965 92.8501 51.4308C92.8501 52.5651 92.2458 53.4849 91.5006 53.4849Z" fill="white"/>
<path d="M91.5006 71.9932H57.4194C56.6742 71.9932 56.07 71.0734 56.07 69.9391C56.07 68.8048 56.6742 67.885 57.4194 67.885H91.5006C92.2458 67.885 92.8501 68.8048 92.8501 69.9391C92.8501 71.0734 92.2458 71.9932 91.5006 71.9932Z" fill="white"/>
<path d="M91.5006 80.9095H57.4194C56.6742 80.9095 56.07 79.9896 56.07 78.8553C56.07 77.7209 56.6742 76.801 57.4194 76.801H91.5006C92.2458 76.801 92.8501 77.7209 92.8501 78.8553C92.8501 79.9896 92.2458 80.9095 91.5006 80.9095Z" fill="#00D967"/>
<path d="M91.5006 89.8255H57.4194C56.6742 89.8255 56.07 88.9056 56.07 87.7713C56.07 86.6369 56.6742 85.717 57.4194 85.717H91.5006C92.2458 85.717 92.8501 86.6369 92.8501 87.7713C92.8501 88.9056 92.2458 89.8255 91.5006 89.8255Z" fill="white"/>
<path d="M91.5006 98.7417H57.4194C56.6742 98.7417 56.07 97.8218 56.07 96.6875C56.07 95.5532 56.6742 94.6333 57.4194 94.6333H91.5006C92.2458 94.6333 92.8501 95.5532 92.8501 96.6875C92.8501 97.8218 92.2458 98.7417 91.5006 98.7417Z" fill="white"/>
<path d="M91.5006 107.658H57.4194C56.6742 107.658 56.07 106.738 56.07 105.604C56.07 104.469 56.6742 103.55 57.4194 103.55H91.5006C92.2458 103.55 92.8501 104.469 92.8501 105.604C92.8501 106.738 92.2458 107.658 91.5006 107.658Z" fill="white"/>
<path d="M156.871 71.9932H100.227C99.4815 71.9932 98.8772 71.0734 98.8772 69.9391C98.8772 68.8048 99.4815 67.885 100.227 67.885H156.871C157.617 67.885 158.221 68.8048 158.221 69.9391C158.22 71.0734 157.617 71.9932 156.871 71.9932Z" fill="white"/>
<path d="M156.871 80.9095H100.227C99.4815 80.9095 98.8772 79.9896 98.8772 78.8553C98.8772 77.7209 99.4815 76.801 100.227 76.801H156.871C157.616 76.801 158.221 77.7209 158.221 78.8553C158.22 79.9896 157.616 80.9095 156.871 80.9095Z" fill="white"/>
<path d="M156.871 89.8255H100.227C99.4815 89.8255 98.8772 88.9056 98.8772 87.7713C98.8772 86.6369 99.4815 85.717 100.227 85.717H156.871C157.616 85.717 158.221 86.6369 158.221 87.7713C158.22 88.9056 157.616 89.8255 156.871 89.8255Z" fill="white"/>
<path d="M156.871 98.7417H100.227C99.4815 98.7417 98.8772 97.8218 98.8772 96.6875C98.8772 95.5532 99.4815 94.6333 100.227 94.6333H156.871C157.616 94.6333 158.221 95.5532 158.221 96.6875C158.22 97.8218 157.616 98.7417 156.871 98.7417Z" fill="white"/>
<path d="M156.871 107.658H100.227C99.4815 107.658 98.8772 106.738 98.8772 105.604C98.8772 104.469 99.4815 103.55 100.227 103.55H156.871C157.616 103.55 158.221 104.469 158.221 105.604C158.22 106.738 157.616 107.658 156.871 107.658Z" fill="white"/>
<path d="M159.471 53.9741H99.4066C98.7474 53.9741 98.2135 53.1614 98.2135 52.158V15.1938C98.2135 14.1913 98.7474 13.3787 99.4066 13.3787H159.471C160.131 13.3787 160.664 14.1913 160.664 15.1938V52.158C160.664 53.1614 160.13 53.9741 159.471 53.9741Z" fill="white"/>
<path d="M158.989 35.1135V50.5423C158.989 51.229 158.621 51.7868 158.168 51.7868H100.48C100.026 51.7868 99.6586 51.2281 99.6586 50.5423V16.6506C104.986 16.6506 107.639 19.6827 109.195 23.6661C109.296 23.9209 109.391 24.1806 109.479 24.4462C112.11 32.0264 111.318 42.4152 117.104 42.4152C117.319 42.4152 117.522 42.3769 117.715 42.2991C117.838 42.2608 117.958 42.1998 118.071 42.123C121.963 39.6271 121.357 21.9189 128.28 22.0458C129.759 22.0743 130.864 22.9371 131.736 24.3144C131.82 24.4531 131.904 24.5908 131.983 24.7404C135.083 30.2781 135.127 42.6208 139.887 44.8609C141.603 45.6686 143.119 44.5737 144.616 42.7645C144.71 42.6474 144.809 42.5313 144.903 42.4044C148.068 38.4043 151.216 31.5669 156.1 33.2423C156.242 33.2925 156.384 33.3476 156.529 33.4096C157.302 33.7519 158.121 34.3048 158.989 35.1135Z" fill="#DAEBFF"/>
<path d="M158.992 31.9979C157.956 32.0205 157.164 32.5518 156.528 33.4097C155.351 34.9965 154.719 37.7079 154.1 40.3582C153.174 44.3249 152.218 48.4185 149.423 48.4185C149.274 48.4185 149.118 48.4067 148.958 48.385C147.137 48.1135 145.797 45.8577 144.615 42.7646C143.881 40.8501 143.209 38.609 142.525 36.3138C140.592 29.8572 138.59 23.1801 134.904 23.0247C134.861 23.0247 134.82 23.0188 134.78 23.0188C133.665 23.0188 132.752 23.6661 131.982 24.7394C130.423 26.9028 129.431 30.8026 128.46 34.6197C127.024 40.2687 125.542 46.1105 122.195 46.2266C119.789 46.3043 118.695 44.9201 117.714 42.2983C117.336 41.28 116.973 40.0739 116.558 38.6966C115.802 36.1741 114.858 33.0368 113.294 29.3859C112.244 26.9412 110.91 25.3858 109.478 24.4453C105.619 21.8844 101.076 23.7596 99.6586 24.462V23.8806C101.177 23.1506 105.423 21.4958 109.195 23.6641C110.842 24.6106 112.397 26.286 113.596 29.0859C115.178 32.7653 116.126 35.9242 116.889 38.4634C117.317 39.8909 117.684 41.1138 118.07 42.1202C118.993 44.5482 120.007 45.7485 122.187 45.6717C125.291 45.5615 126.664 40.1506 128.122 34.419C129.111 30.5301 130.118 26.5565 131.735 24.3105C132.593 23.1211 133.621 22.4127 134.912 22.4678C138.829 22.6282 140.875 29.4666 142.856 36.0836C143.532 38.3296 144.186 40.5255 144.902 42.4016C146.036 45.4002 147.308 47.5744 148.994 47.8282C151.872 48.2601 152.788 44.3318 153.759 40.1654C154.362 37.5711 154.98 34.9267 156.099 33.2385C156.811 32.1543 157.731 31.4686 158.985 31.4401L158.992 31.9979Z" fill="#00B77B"/>
<path d="M57.5977 53.9338H17.9377C16.6484 53.9338 15.6034 52.343 15.6034 50.3803V14.3162C15.6034 12.3535 16.6484 10.7627 17.9377 10.7627H57.5977C58.8871 10.7627 59.9321 12.3535 59.9321 14.3162V50.3803C59.9321 52.343 58.8871 53.9338 57.5977 53.9338Z" fill="#B0D8FF"/>
<path d="M59.9321 14.1017C59.9321 12.1823 58.9103 10.627 57.6494 10.627H18.6978C17.4369 10.627 16.4151 12.1823 16.4151 14.1017V18.0713H59.9321V14.1017Z" fill="#3998FF"/>
<path d="M16.4152 18.0713V49.2085C16.4152 51.1278 17.4369 52.6832 18.6978 52.6832H57.6494C58.9103 52.6832 59.9321 51.1278 59.9321 49.2085V18.0713H16.4152V18.0713Z" fill="url(#paint1_linear_691_3787)"/>
<path d="M49.7814 15.7358C50.2335 15.4508 50.4482 14.6618 50.2609 13.9735C50.0737 13.2853 49.5554 12.9585 49.1033 13.2436C48.6512 13.5287 48.4365 14.3177 48.6238 15.0059C48.811 15.6941 49.3293 16.0209 49.7814 15.7358Z" fill="white"/>
<path d="M53.3599 15.7358C53.812 15.4508 54.0267 14.6618 53.8395 13.9735C53.6522 13.2853 53.1339 12.9585 52.6818 13.2436C52.2296 13.5287 52.015 14.3177 52.2022 15.0059C52.3895 15.6941 52.9078 16.0209 53.3599 15.7358Z" fill="white"/>
<path d="M57.4613 14.8116C57.5737 14.0867 57.2788 13.3602 56.8026 13.189C56.3264 13.0178 55.8492 13.4668 55.7367 14.1917C55.6243 14.9167 55.9192 15.6432 56.3954 15.8144C56.8716 15.9855 57.3488 15.5366 57.4613 14.8116Z" fill="white"/>
<path d="M54.1692 50.0703H41.9023C39.9984 50.0703 38.4544 47.721 38.4544 44.8218V28.3787C38.4544 25.4804 39.9977 23.1301 41.9023 23.1301H54.1692C56.0732 23.1301 57.6171 25.4794 57.6171 28.3787V44.8218C57.6165 47.721 56.0732 50.0703 54.1692 50.0703Z" fill="white"/>
<path d="M35.0479 33.9767C34.2627 28.6829 31.1567 24.728 27.4419 24.728V36.6005L35.0479 33.9767Z" fill="#0ACE68"/>
<path d="M27.4425 36.6005V24.728C23.1351 24.728 19.6433 30.0435 19.6433 36.6005C19.6433 43.1575 23.1351 48.4729 27.4425 48.4729C31.7499 48.4729 35.2418 43.1575 35.2418 36.6005C35.2418 35.6983 35.1733 34.8208 35.0479 33.9757L27.4425 36.6005Z" fill="white"/>
<path d="M27.4425 45.8747C30.7348 45.8747 33.4038 41.8119 33.4038 36.8002C33.4038 31.7884 30.7348 27.7256 27.4425 27.7256C24.1502 27.7256 21.4813 31.7884 21.4813 36.8002C21.4813 41.8119 24.1502 45.8747 27.4425 45.8747Z" fill="#DAEBFF"/>
<path d="M19.5612 69.4248H6.27447V78.3676H19.5612V69.4248Z" fill="#DAEBFF"/>
<path d="M24.9337 78.3674H11.6469V87.3101H24.9337V78.3674Z" fill="#EBF5FF"/>
<path d="M192.439 72.1635H137.965C136.194 72.1635 134.758 69.9785 134.758 67.2829V17.7468C134.758 15.0512 136.194 12.8662 137.965 12.8662H192.439C194.21 12.8662 195.645 15.0512 195.645 17.7468V67.2829C195.645 69.9785 194.209 72.1635 192.439 72.1635Z" fill="#B0D8FF"/>
<path d="M195.645 17.4526C195.645 14.817 194.242 12.6802 192.51 12.6802H139.009C137.278 12.6802 135.874 14.817 135.874 17.4526V22.9048H195.646V17.4526H195.645Z" fill="#3998FF"/>
<path d="M135.873 22.9048V65.6733C135.873 68.3089 137.276 70.4457 139.008 70.4457H192.509C194.24 70.4457 195.644 68.3089 195.644 65.6733V22.9048H135.873Z" fill="url(#paint2_linear_691_3787)"/>
<path d="M159.614 27.6898H148.73C148.509 27.6898 148.329 27.3947 148.329 27.0307C148.329 26.6667 148.508 26.3716 148.73 26.3716H159.614C159.835 26.3716 160.015 26.6667 160.015 27.0307C160.015 27.3947 159.835 27.6898 159.614 27.6898Z" fill="#006DFE"/>
<path d="M157.819 33.5987H146.935C146.714 33.5987 146.534 33.3036 146.534 32.9396C146.534 32.5756 146.713 32.2805 146.935 32.2805H157.819C158.04 32.2805 158.22 32.5756 158.22 32.9396C158.22 33.3036 158.041 33.5987 157.819 33.5987Z" fill="#00D967"/>
<path d="M180.9 33.5987H162.21C161.989 33.5987 161.809 33.3036 161.809 32.9396C161.809 32.5756 161.988 32.2805 162.21 32.2805H180.9C181.122 32.2805 181.301 32.5756 181.301 32.9396C181.301 33.3036 181.122 33.5987 180.9 33.5987Z" fill="#006DFE"/>
<path d="M169.025 27.6898H163.525C163.304 27.6898 163.124 27.3947 163.124 27.0307C163.124 26.6667 163.303 26.3716 163.525 26.3716H169.025C169.246 26.3716 169.426 26.6667 169.426 27.0307C169.426 27.3947 169.246 27.6898 169.025 27.6898Z" fill="#006DFE"/>
<path d="M178.681 27.6898H173.181C172.96 27.6898 172.78 27.3947 172.78 27.0307C172.78 26.6667 172.959 26.3716 173.181 26.3716H178.681C178.902 26.3716 179.082 26.6667 179.082 27.0307C179.082 27.3947 178.902 27.6898 178.681 27.6898Z" fill="#006DFE"/>
<path d="M154.218 39.5084H147.067C146.846 39.5084 146.667 39.2133 146.667 38.8493C146.667 38.4853 146.846 38.1902 147.067 38.1902H154.218C154.439 38.1902 154.618 38.4853 154.618 38.8493C154.618 39.2133 154.439 39.5084 154.218 39.5084Z" fill="#006DFE"/>
<path d="M169.046 39.5084H158.162C157.941 39.5084 157.761 39.2133 157.761 38.8493C157.761 38.4853 157.94 38.1902 158.162 38.1902H169.047C169.268 38.1902 169.447 38.4853 169.447 38.8493C169.447 39.2133 169.267 39.5084 169.046 39.5084Z" fill="#00D967"/>
<path d="M176.983 39.5084H172.918C172.697 39.5084 172.518 39.2133 172.518 38.8493C172.518 38.4853 172.697 38.1902 172.918 38.1902H176.983C177.204 38.1902 177.384 38.4853 177.384 38.8493C177.383 39.2133 177.204 39.5084 176.983 39.5084Z" fill="#006DFE"/>
<path d="M160.95 45.417H154.573C154.352 45.417 154.173 45.1218 154.173 44.7578C154.173 44.3938 154.352 44.0986 154.573 44.0986H160.95C161.171 44.0986 161.351 44.3938 161.351 44.7578C161.35 45.1218 161.171 45.417 160.95 45.417Z" fill="#006DFE"/>
<path d="M176.203 45.417H165.319C165.098 45.417 164.918 45.1218 164.918 44.7578C164.918 44.3938 165.097 44.0986 165.319 44.0986H176.203C176.424 44.0986 176.604 44.3938 176.604 44.7578C176.604 45.1218 176.424 45.417 176.203 45.417Z" fill="#006DFE"/>
<path d="M172.714 51.3268H152.319C152.098 51.3268 151.918 51.0316 151.918 50.6676C151.918 50.3037 152.097 50.0085 152.319 50.0085H172.714C172.935 50.0085 173.115 50.3037 173.115 50.6676C173.115 51.0316 172.936 51.3268 172.714 51.3268Z" fill="#006DFE"/>
<path d="M187.968 51.3268H175.648C175.427 51.3268 175.248 51.0316 175.248 50.6676C175.248 50.3037 175.427 50.0085 175.648 50.0085H187.968C188.189 50.0085 188.369 50.3037 188.369 50.6676C188.369 51.0316 188.189 51.3268 187.968 51.3268Z" fill="#006DFE"/>
<path d="M157.819 57.2353H146.935C146.714 57.2353 146.534 56.9402 146.534 56.5762C146.534 56.2121 146.713 55.917 146.935 55.917H157.819C158.04 55.917 158.22 56.2121 158.22 56.5762C158.22 56.9402 158.041 57.2353 157.819 57.2353Z" fill="#006DFE"/>
<path d="M170.991 57.2353H160.107C159.886 57.2353 159.706 56.9402 159.706 56.5762C159.706 56.2121 159.885 55.917 160.107 55.917H170.991C171.212 55.917 171.392 56.2121 171.392 56.5762C171.392 56.9402 171.212 57.2353 170.991 57.2353Z" fill="#00D967"/>
<path d="M172.039 63.1451H155.507C155.286 63.1451 155.106 62.85 155.106 62.486C155.106 62.122 155.285 61.8269 155.507 61.8269H172.039C172.26 61.8269 172.44 62.122 172.44 62.486C172.44 62.85 172.26 63.1451 172.039 63.1451Z" fill="#006DFE"/>
<path d="M142.016 26.3706H141.215V27.6899H142.016V26.3706Z" fill="#006DFE"/>
<path d="M142.016 32.2805H141.215V33.5997H142.016V32.2805Z" fill="#006DFE"/>
<path d="M142.016 38.189H141.215V39.5083H142.016V38.189Z" fill="#006DFE"/>
<path d="M142.016 44.0986H141.215V45.418H142.016V44.0986Z" fill="#006DFE"/>
<path d="M142.016 50.0073H141.215V51.3267H142.016V50.0073Z" fill="#006DFE"/>
<path d="M142.016 55.917H141.215V57.2363H142.016V55.917Z" fill="#006DFE"/>
<path d="M142.016 61.8257H141.215V63.145H142.016V61.8257Z" fill="#006DFE"/>
<path d="M183.76 65.8349L180.84 63.7936C180.75 63.7306 180.691 63.584 180.691 63.4227V62.9839C180.691 62.8226 180.75 62.676 180.84 62.613L183.76 60.5716C183.921 60.4585 184.1 60.6543 184.1 60.9425V61.0989C184.1 61.2622 184.04 61.4098 183.948 61.4718L181.944 62.8304C181.741 62.9672 181.741 63.4384 181.944 63.5761L183.948 64.9348C184.04 64.9967 184.1 65.1443 184.1 65.3076V65.4641C184.1 65.7523 183.921 65.9481 183.76 65.8349Z" fill="#006DFE"/>
<path d="M186.407 59.4186L185.058 67.0951C185.028 67.2672 184.932 67.3863 184.823 67.3863C184.66 67.3863 184.542 67.1295 184.588 66.8718L185.936 59.1953C185.967 59.0231 186.062 58.9041 186.172 58.9041C186.334 58.9041 186.452 59.1608 186.407 59.4186Z" fill="#006DFE"/>
<path d="M190.154 63.7936L187.235 65.8349C187.073 65.9481 186.894 65.7523 186.894 65.4641V65.3076C186.894 65.1443 186.954 64.9967 187.046 64.9348L189.051 63.5761C189.253 63.4394 189.253 62.9681 189.051 62.8304L187.046 61.4718C186.954 61.4098 186.894 61.2622 186.894 61.0989V60.9425C186.894 60.6543 187.073 60.4585 187.235 60.5716L190.154 62.613C190.244 62.676 190.303 62.8226 190.303 62.9839V63.4227C190.303 63.584 190.244 63.7306 190.154 63.7936Z" fill="#006DFE"/>
<path d="M181.234 19.8392C181.906 19.8392 182.451 19.0098 182.451 17.9867C182.451 16.9637 181.906 16.1343 181.234 16.1343C180.562 16.1343 180.017 16.9637 180.017 17.9867C180.017 19.0098 180.562 19.8392 181.234 19.8392Z" fill="white"/>
<path d="M186.149 19.8392C186.821 19.8392 187.366 19.0098 187.366 17.9867C187.366 16.9637 186.821 16.1343 186.149 16.1343C185.477 16.1343 184.932 16.9637 184.932 17.9867C184.932 19.0098 185.477 19.8392 186.149 19.8392Z" fill="white"/>
<path d="M191.064 19.8392C191.736 19.8392 192.281 19.0098 192.281 17.9867C192.281 16.9637 191.736 16.1343 191.064 16.1343C190.392 16.1343 189.847 16.9637 189.847 17.9867C189.847 19.0098 190.392 19.8392 191.064 19.8392Z" fill="white"/>
<path d="M147.207 137.131H104.044C102.641 137.131 101.503 135.4 101.503 133.264V94.0135C101.503 91.8777 102.641 90.1462 104.044 90.1462H147.207C148.61 90.1462 149.747 91.8777 149.747 94.0135V133.264C149.747 135.4 148.61 137.131 147.207 137.131Z" fill="#B0D8FF"/>
<path d="M149.747 93.7805C149.747 91.6919 148.635 89.9988 147.263 89.9988H104.871C103.499 89.9988 102.387 91.6919 102.387 93.7805V98.1003H149.747V93.7805V93.7805Z" fill="#3998FF"/>
<path d="M102.387 98.1013V131.989C102.387 134.078 103.499 135.771 104.871 135.771H147.263C148.635 135.771 149.747 134.078 149.747 131.989V98.1013H102.387Z" fill="url(#paint3_linear_691_3787)"/>
<path d="M139.271 94.5621C139.393 93.7731 139.072 92.9826 138.554 92.7963C138.036 92.61 137.516 93.0985 137.394 93.8875C137.271 94.6764 137.592 95.4669 138.111 95.6532C138.629 95.8395 139.148 95.351 139.271 94.5621Z" fill="white"/>
<path d="M143.165 94.5626C143.288 93.7736 142.967 92.9831 142.448 92.7968C141.93 92.6105 141.411 93.099 141.288 93.888C141.166 94.6769 141.487 95.4674 142.005 95.6537C142.524 95.84 143.043 95.3515 143.165 94.5626Z" fill="white"/>
<path d="M147.06 94.5618C147.183 93.7728 146.862 92.9823 146.343 92.796C145.825 92.6097 145.306 93.0982 145.183 93.8872C145.061 94.6761 145.382 95.4667 145.9 95.653C146.418 95.8393 146.938 95.3507 147.06 94.5618Z" fill="white"/>
<path d="M110.428 104.429H106.534V126.695H110.428V104.429Z" fill="#00D967"/>
<path d="M117.267 107.32H113.373V126.695H117.267V107.32Z" fill="#00D967"/>
<path d="M124.106 113.104H120.211V126.695H124.106V113.104Z" fill="#00D967"/>
<path d="M130.945 108.767H127.05V126.695H130.945V108.767Z" fill="#00D967"/>
<path d="M137.784 113.104H133.889V126.695H137.784V113.104Z" fill="#00D967"/>
<path d="M144.622 108.767H140.728V126.695H144.622V108.767Z" fill="#00D967"/>
<path d="M146.142 128.575H105.109V129.443H146.142V128.575Z" fill="#00D967"/>
<path d="M26.561 113.461C26.561 113.461 27.6352 90.0714 35.8726 77.589C44.11 65.1067 60.0859 63.687 66.2617 69.1628C72.4375 74.6386 76.204 82.2936 77.8927 100.31C79.5814 118.326 79.0754 143.093 75.8938 153.615C72.7122 164.136 66.0504 175.464 56.9786 178.66C47.9069 181.857 38.0764 184.154 27.9176 180.314C17.7588 176.474 13.5457 172.334 11.1713 156.831C8.79689 141.326 16.8559 131.356 19.927 128.281C22.9981 125.207 26.561 113.461 26.561 113.461Z" fill="#9FD4FF"/>
<path d="M68.7479 71.6519C70.056 75.7199 71.5773 82.0486 72.2604 90.8103C73.5795 107.727 76.3261 128.586 72.5402 140.211C68.755 151.834 65.448 163.173 57.2164 167.502C48.9848 171.832 40.7209 173.307 40.7209 173.307C40.7209 173.307 23.8596 173.491 13.885 167.939C16.5767 174.773 20.7794 177.619 27.9182 180.316C38.077 184.156 47.9075 181.859 56.9792 178.662C66.051 175.466 72.7128 164.139 75.8944 153.616C79.076 143.094 79.5827 118.327 77.8933 100.311C76.4437 84.8525 73.4651 77.0224 68.7479 71.6519Z" fill="#78CFFF"/>
<path d="M50.8733 83.5687L50.4112 75.5498L49.032 67.4128C44.1469 69.0627 39.3289 72.3515 35.8726 77.5882C27.6352 90.0706 26.5611 113.46 26.5611 113.46C26.5611 113.46 22.9982 125.206 19.9271 128.281C17.0046 131.208 9.56597 140.378 10.8986 154.62C15.0522 155.9 20.9785 156.483 24.7496 151.449C31.0533 143.033 45.1647 105.678 45.1647 105.678L50.8733 83.5687Z" fill="#B6E2FF"/>
<path d="M62.1559 81.7643C65.7679 76.5866 65.0118 70.2017 64.5995 67.9842C62.0687 66.543 58.615 65.8976 54.8769 66.1987L53.4803 70.0355L53.1908 75.4119C53.1908 75.4119 50.8319 92.8094 50.8177 94.5271C50.8034 96.2448 48.6778 104.138 48.2862 105.295C47.8946 106.452 41.1003 123.576 41.1003 123.576C41.1003 123.576 30.9551 141.586 31.0384 142.251C31.1218 142.916 30.9635 179.886 30.9635 179.886L32.5145 181.657C34.6627 182.106 36.7929 182.31 38.9004 182.322C38.6651 180.305 38.2909 177.721 37.7086 174.415C35.4706 161.718 38.1184 146.529 38.1184 146.529C38.1184 146.529 39.3211 166.33 42.4142 170.877C45.5079 175.423 48.7754 173.568 47.6787 168.737C46.582 163.906 48.7476 158.366 48.7476 158.366C48.7476 158.366 68.5172 145.672 69.8065 137.221C71.0958 128.77 64.2175 127.756 64.2175 127.756C64.2175 127.756 69.3224 124.192 70.9084 119.358C72.4943 114.525 68.9243 97.3417 66.7328 92.3804C64.5426 87.4192 61.2246 83.6768 62.1559 81.7643Z" fill="#64C8FF"/>
<path d="M34.5186 179.343C34.5186 179.343 34.8411 182.153 35.2838 184.331C35.7265 186.509 37.0462 187.787 36.9602 190.06C36.8742 192.335 32.8021 194.297 29.9979 196.176C27.1937 198.057 24.4289 198.303 24.1336 194.804C23.8382 191.305 28.8236 190.414 29.8454 185.418C30.8665 180.421 30.1743 180.005 30.1743 180.005L34.5186 179.343Z" fill="#FFAB00"/>
<path d="M27.9841 186.237C27.9841 186.237 31.2368 184.984 32.4447 186.405C33.6519 187.825 34.2659 192.595 33.8432 194.258L36.6409 193.624L38.6496 190.014L37.2387 182.654L34.0552 178.044L27.6093 180.197L27.9841 186.237Z" fill="#FE8E00"/>
<path d="M45.716 147.188C45.716 147.188 44.1248 148.693 42.7625 149.643C41.4008 150.591 39.895 149.945 38.8383 151.557C37.7816 153.169 39.533 159.1 40.4805 163.536C41.4279 167.972 43.149 171.274 45.06 169.278C46.971 167.282 44.0854 161.029 45.853 156.541C47.6205 152.053 48.2856 152.56 48.2856 152.56L45.716 147.188Z" fill="#FFAB00"/>
<path d="M41.6515 149.661C41.6515 149.661 43.2097 151.186 43.2885 155.725C43.3674 160.266 45.4826 169.807 45.4826 169.807C45.4826 169.807 46.3551 167.032 46.4353 166.82C46.5154 166.607 45.7612 159.815 45.7612 159.815C45.7612 159.815 47.2302 156.506 47.3058 156.403C47.3814 156.3 48.4012 152.806 48.4012 152.806L44.1888 146.024L41.6515 149.661Z" fill="#FE8E00"/>
<path d="M58.9885 126.008C58.9885 126.008 66.1396 129.837 67.3539 133.48C68.5683 137.123 67.8664 142.874 60.5519 147.721C53.2373 152.569 46.6537 157.152 46.6537 157.152C46.6537 157.152 43.2259 153.673 43.286 147.646L52.7636 139.285C52.7636 139.285 50.4105 137.189 47.5824 137.683C44.7543 138.178 33.9163 140.444 33.9163 140.444C33.9163 140.444 35.1869 157.471 36.1007 181.13C36.1007 181.13 32.7091 185.112 28.9219 182.37C28.9219 182.37 23.7581 143.318 24.0722 136.874C24.3863 130.43 27.1453 127.928 31.0804 126.735C35.0156 125.541 43.0831 121.746 43.0831 121.746L58.9885 126.008Z" fill="#1E2889"/>
<path d="M23.9423 130.721C23.9423 130.721 27.882 129.401 30.0961 133.77C32.3096 138.138 35.8577 149.195 35.8577 149.195L45.8989 145.596C45.8989 145.596 50.3162 142.116 54.4362 139.842C58.5562 137.567 63.1848 133.254 65.9773 137.554C68.7699 141.855 65.227 147.96 65.227 147.96L70.6454 137.96L69.3638 124.104L48.0839 117.136L29.2573 119.666L23.9423 130.721Z" fill="#17216B"/>
<path d="M67.0993 104.257C66.0387 99.3939 63.9461 90.5298 61.032 88.8141C58.1186 87.0984 53.8784 86.9675 53.8784 86.9675L52.6634 87.2095L48.9725 87.0167C42.4755 86.9272 41.4486 89.4428 40.1845 92.8969C39.0451 96.0096 37.8876 100.84 37.8876 100.84L33.5143 120.913C43.0384 132.022 59.7589 127.06 59.7589 127.06C59.7589 127.06 65.9172 122.825 67.8431 120.442C69.769 118.06 68.1591 109.12 67.0993 104.257ZM43.211 106.91L42.9176 114.74L39.9938 113.503C39.9938 113.503 41.8066 105.43 43.4559 100.392L43.211 106.91ZM62.6484 113.905C62.2218 115.678 59.0447 118.746 59.0447 118.746L59.9327 102.756C59.9327 102.756 63.0755 112.132 62.6484 113.905Z" fill="#FFAB00"/>
<path d="M60.0827 104.524L59.9327 102.756C59.9327 102.756 59.7272 98.6255 60.1537 94.9343C60.1537 94.9343 58.14 101.559 57.2119 109.978C56.2839 118.397 46.2356 120.265 46.2356 120.265L46.0818 126.284L53.7182 125.342L55.0081 123.605L59.0447 118.746L60.632 109.082L60.0827 104.524Z" fill="#FE8E00"/>
<path d="M66.9403 101.282C66.9319 101.5 68.1695 110.766 67.891 114.36C67.6124 117.955 66.9565 119.104 63.6462 121.887C60.336 124.671 55.697 127.339 55.697 127.339L55.8838 129.08L59.8119 129.043L63.0374 126.606L68.3227 123.61C68.3227 123.61 69.791 120.393 69.8563 118.644C69.9222 116.895 70.5704 116.897 69.844 113.214C69.1163 109.532 66.9403 101.282 66.9403 101.282Z" fill="#FE8E00"/>
<path d="M42.7076 103.37L43.3532 100.708C43.3532 100.708 42.9357 98.9756 43.6337 93.2234L40.2504 106.651L39.2151 114.417L41.1655 110.721L42.7076 103.37Z" fill="#FE8E00"/>
<path d="M46.6925 124.418C46.6925 124.418 47.8189 122.24 49.0876 121.555C50.3562 120.87 55.0088 123.605 55.0088 123.605L56.0938 127.812C56.0938 127.812 54.4497 129.396 52.4954 128.678C50.541 127.959 47.4589 128.02 47.4589 128.02L46.6925 124.418Z" fill="#FFACA6"/>
<path d="M55.3786 127.913L29.3748 125.653L29.2665 128.54L55.2703 130.8L55.3786 127.913Z" fill="#78C2FF"/>
<path d="M48.3612 130.194L25.7131 128.226L23.3438 103.781L45.9919 105.749L48.3612 130.194Z" fill="#0542BF"/>
<path d="M46.666 130.047L24.0173 128.078L21.648 103.634L44.2961 105.603L46.666 130.047Z" fill="#006DFE"/>
<path d="M33.8448 118.174C34.9497 117.923 35.674 115.973 35.4626 113.82C35.2512 111.667 34.1842 110.125 33.0793 110.377C31.9744 110.628 31.25 112.577 31.4614 114.73C31.6728 116.884 32.7399 118.425 33.8448 118.174Z" fill="white"/>
<path d="M49.5096 83.9237C49.4534 84.8052 49.2976 85.8421 48.9719 87.0167C48.9719 87.0167 49.5684 89.1889 51.1873 88.9273C52.8063 88.6656 53.8784 86.9676 53.8784 86.9676C53.8784 86.9676 53.5533 86.0172 53.3873 84.3408C51.9732 83.2242 50.4926 83.5026 49.5096 83.9237Z" fill="#FFACA6"/>
<path d="M53.3872 84.3407C53.2632 83.0844 53.2289 81.4208 53.4881 79.4395L52.4928 78.439L49.1735 80.4902C49.1735 80.4902 49.6498 81.7238 49.5096 83.9226C50.4926 83.5025 51.9732 83.2241 53.3872 84.3407Z" fill="#EA756C"/>
<path d="M46.8948 68.2656C46.8948 68.2656 45.1137 68.6542 44.3743 64.3904C43.8017 61.0868 45.0788 59.864 45.9823 59.0287C46.8857 58.1935 46.9543 57.4842 48.115 56.5082C49.6524 55.2165 50.269 56.6952 51.1176 55.855C51.9661 55.0149 53.5766 54.9657 54.4019 56.6519C55.2272 58.3381 55.774 57.557 57.0122 58.4689C58.2511 59.3809 57.7283 61.7843 58.3022 62.4927C58.8761 63.201 59.8002 63.5365 59.6742 65.6093C59.5482 67.6822 58.6182 68.1495 59.1876 69.6252C59.7569 71.0999 59.4622 74.4743 57.9816 74.8944C56.501 75.3145 55.7468 76.857 55.571 78.3406C55.3952 79.8242 53.7867 80.4518 52.8961 79.8625C52.0055 79.2732 46.8948 68.2656 46.8948 68.2656Z" fill="#191E56"/>
<path d="M43.7623 61.4243C43.7623 61.4243 44.1785 62.5547 49.4392 62.4081C54.6999 62.2615 54.7108 69.1717 56.4422 70.5558C58.1736 71.94 59.9146 73.6538 59.9146 73.6538L56.5689 80.138L53.6535 83.5517L43.9626 76.2156L43.7623 61.4243Z" fill="#10163D"/>
<path d="M46.7403 65.9852C46.7403 65.9852 45.4568 73.953 46.4353 78.6074C47.4138 83.2617 50.2587 81.6818 52.5633 79.1396L53.048 76.4578C53.048 76.4578 54.252 76.8454 54.9836 74.6338C55.7152 72.4222 54.1454 72.011 54.1454 72.011C54.1454 72.011 53.5398 71.3548 53.481 70.0336C53.481 70.0336 52.5006 70.7163 51.4013 68.3444C51.4013 68.3444 50.8261 66.8687 49.9536 67.396C49.0812 67.9233 48.124 67.5111 47.6878 66.3404C47.2509 65.1706 46.7403 65.9852 46.7403 65.9852Z" fill="#FFACA6"/>
<path d="M45.429 67.8269C45.429 67.8269 45.7244 69.0478 47.3898 69.3213C49.0553 69.5948 49.4437 70.0405 50.711 71.1925C51.9784 72.3445 52.666 73.6933 54.1654 73.5762C55.6647 73.4602 55.5548 72.5452 55.5548 72.5452L54.3373 69.9441L50.6664 66.9651L47.7039 65.756L46.5826 65.4038L45.429 67.8269Z" fill="#EA756C"/>
<defs>
<linearGradient id="paint0_linear_691_3787" x1="50.9753" y1="63.8985" x2="165.759" y2="63.8985" gradientUnits="userSpaceOnUse">
<stop stop-color="#B0D8FF"/>
<stop offset="0.0154" stop-color="#B3D9FF"/>
<stop offset="0.145" stop-color="#C4E1FF"/>
<stop offset="0.3014" stop-color="#D1E7FF"/>
<stop offset="0.5117" stop-color="#D8EAFF"/>
<stop offset="1" stop-color="#DAEBFF"/>
</linearGradient>
<linearGradient id="paint1_linear_691_3787" x1="38.0722" y1="15.4229" x2="38.5721" y2="54.1796" gradientUnits="userSpaceOnUse">
<stop stop-color="#B0D8FF"/>
<stop offset="0.0154" stop-color="#B3D9FF"/>
<stop offset="0.145" stop-color="#C4E1FF"/>
<stop offset="0.3014" stop-color="#D1E7FF"/>
<stop offset="0.5117" stop-color="#D8EAFF"/>
<stop offset="1" stop-color="#DAEBFF"/>
</linearGradient>
<linearGradient id="paint2_linear_691_3787" x1="166.068" y1="19.5078" x2="164.569" y2="71.3826" gradientUnits="userSpaceOnUse">
<stop stop-color="#B0D8FF"/>
<stop offset="0.0154" stop-color="#B3D9FF"/>
<stop offset="0.145" stop-color="#C4E1FF"/>
<stop offset="0.3014" stop-color="#D1E7FF"/>
<stop offset="0.5117" stop-color="#D8EAFF"/>
<stop offset="1" stop-color="#DAEBFF"/>
</linearGradient>
<linearGradient id="paint3_linear_691_3787" x1="126.165" y1="97.4086" x2="125.665" y2="136.165" gradientUnits="userSpaceOnUse">
<stop stop-color="#B0D8FF"/>
<stop offset="0.0154" stop-color="#B3D9FF"/>
<stop offset="0.145" stop-color="#C4E1FF"/>
<stop offset="0.3014" stop-color="#D1E7FF"/>
<stop offset="0.5117" stop-color="#D8EAFF"/>
<stop offset="1" stop-color="#DAEBFF"/>
</linearGradient>
</defs>
</svg>
