<svg width="1411" height="366" viewBox="0 0 1411 366" fill="none" xmlns="http://www.w3.org/2000/svg">
<path opacity="0.7" d="M721.596 363.168C720.084 363.92 693.774 368.866 680.411 363.124L6.6709 73.6044C-3.81417 69.0987 -1.30108 49.209 9.75519 49.1881L1401.22 47C1412.3 46.9825 1414.83 66.9299 1404.31 71.423C1393.8 75.9161 723.11 362.421 721.596 363.168Z" fill="url(#paint0_linear_15_4)"/>
<path d="M721.596 316.168C720.084 316.92 693.774 321.866 680.411 316.124L6.6709 26.6043C-3.81417 22.0987 -1.30114 2.20894 9.75513 2.18805L1401.22 0C1412.3 -0.0175446 1414.83 19.9298 1404.31 24.4229C1393.8 28.916 723.11 315.421 721.596 316.168Z" fill="url(#paint1_linear_15_4)"/>
<path opacity="0.36" d="M373.928 210.001L371 213.765L383.054 229.264L385.982 225.499L373.928 210.001Z" fill="#1695A3"/>
<path d="M260 67.5762C258.616 67.5762 257.262 67.1656 256.111 66.3965C254.96 65.6273 254.063 64.534 253.533 63.255C253.003 61.9759 252.864 60.5684 253.135 59.2105C253.405 57.8527 254.071 56.6054 255.05 55.6264C256.029 54.6475 257.277 53.9808 258.634 53.7107C259.992 53.4406 261.4 53.5792 262.679 54.109C263.958 54.6388 265.051 55.536 265.82 56.6872C266.589 57.8383 267 59.1917 267 60.5762C266.997 62.4319 266.259 64.2108 264.947 65.5229C263.635 66.8351 261.856 67.5735 260 67.5762ZM260 56.3722C259.169 56.3721 258.357 56.6184 257.665 57.08C256.974 57.5415 256.436 58.1977 256.118 58.9654C255.8 59.7331 255.716 60.5779 255.878 61.393C256.04 62.2081 256.44 62.9568 257.028 63.5445C257.616 64.1322 258.364 64.5324 259.179 64.6946C259.994 64.8568 260.839 64.7736 261.607 64.4556C262.375 64.1377 263.031 63.5991 263.493 62.9082C263.954 62.2172 264.201 61.4048 264.201 60.5738C264.2 59.4596 263.757 58.3912 262.97 57.603C262.182 56.8148 261.114 56.3713 260 56.3699V56.3722Z" fill="#EB8006"/>
<path opacity="0.27" d="M1185.01 174.54H1184.99C1184.24 174.542 1183.51 174.837 1182.98 175.361C1182.44 175.885 1182.14 176.596 1182.14 177.336C1182.14 178.076 1182.44 178.785 1182.98 179.308C1183.52 179.831 1184.24 180.125 1185 180.125C1185.76 180.125 1186.48 179.831 1187.02 179.308C1187.56 178.785 1187.86 178.076 1187.86 177.336C1187.86 176.596 1187.56 175.885 1187.02 175.361C1186.49 174.837 1185.76 174.542 1185.01 174.54ZM1185.01 192.026H1184.99C1184.24 192.028 1183.51 192.323 1182.98 192.847C1182.44 193.371 1182.14 194.081 1182.14 194.821C1182.14 195.562 1182.44 196.271 1182.98 196.794C1183.52 197.317 1184.24 197.611 1185 197.611C1185.76 197.611 1186.48 197.317 1187.02 196.794C1187.56 196.271 1187.86 195.562 1187.86 194.821C1187.86 194.081 1187.56 193.371 1187.02 192.847C1186.49 192.323 1185.76 192.028 1185.01 192.026ZM1185.01 227.001H1184.99C1184.24 227.003 1183.51 227.298 1182.98 227.822C1182.44 228.346 1182.14 229.057 1182.14 229.797C1182.14 230.537 1182.44 231.246 1182.98 231.769C1183.52 232.292 1184.24 232.586 1185 232.586C1185.76 232.586 1186.48 232.292 1187.02 231.769C1187.56 231.246 1187.86 230.537 1187.86 229.797C1187.86 229.057 1187.56 228.346 1187.02 227.822C1186.49 227.298 1185.76 227.003 1185.01 227.001ZM1185.01 209.513H1184.99C1184.24 209.515 1183.51 209.81 1182.98 210.335C1182.44 210.859 1182.14 211.569 1182.14 212.309C1182.14 213.049 1182.44 213.758 1182.98 214.281C1183.52 214.804 1184.24 215.098 1185 215.098C1185.76 215.098 1186.48 214.804 1187.02 214.281C1187.56 213.758 1187.86 213.049 1187.86 212.309C1187.86 211.569 1187.56 210.859 1187.02 210.335C1186.49 209.81 1185.76 209.515 1185.01 209.513ZM1205.39 122.073H1205.37C1204.61 122.075 1203.89 122.371 1203.35 122.895C1202.82 123.42 1202.52 124.13 1202.52 124.87C1202.52 125.61 1202.82 126.32 1203.36 126.843C1203.9 127.366 1204.62 127.66 1205.38 127.66C1206.14 127.66 1206.86 127.366 1207.4 126.843C1207.94 126.32 1208.24 125.61 1208.24 124.87C1208.24 124.13 1207.94 123.42 1207.4 122.895C1206.87 122.371 1206.14 122.075 1205.39 122.073ZM1185.01 157.051H1184.99C1184.24 157.052 1183.51 157.348 1182.98 157.872C1182.44 158.396 1182.14 159.106 1182.14 159.846C1182.14 160.586 1182.44 161.296 1182.98 161.819C1183.52 162.342 1184.24 162.636 1185 162.636C1185.76 162.636 1186.48 162.342 1187.02 161.819C1187.56 161.296 1187.86 160.586 1187.86 159.846C1187.86 159.106 1187.56 158.396 1187.02 157.872C1186.49 157.348 1185.76 157.052 1185.01 157.051ZM1164.63 197.598C1165.38 197.598 1166.11 197.304 1166.64 196.782C1167.18 196.259 1167.48 195.551 1167.48 194.812C1167.48 194.073 1167.18 193.364 1166.64 192.842C1166.11 192.319 1165.38 192.026 1164.63 192.026H1164.61C1164.24 192.027 1163.87 192.1 1163.52 192.24C1163.18 192.381 1162.86 192.587 1162.6 192.846C1162.33 193.106 1162.13 193.413 1161.98 193.752C1161.84 194.09 1161.77 194.452 1161.77 194.818C1161.77 195.184 1161.84 195.546 1161.99 195.884C1162.13 196.222 1162.34 196.528 1162.61 196.786C1162.87 197.044 1163.19 197.249 1163.53 197.388C1163.88 197.527 1164.25 197.598 1164.63 197.598ZM1164.63 215.085C1165.38 215.085 1166.11 214.792 1166.64 214.269C1167.18 213.747 1167.48 213.038 1167.48 212.299C1167.48 211.56 1167.18 210.852 1166.64 210.329C1166.11 209.807 1165.38 209.513 1164.63 209.513H1164.61C1164.24 209.514 1163.87 209.587 1163.52 209.728C1163.18 209.869 1162.86 210.075 1162.6 210.334C1162.33 210.593 1162.13 210.901 1161.98 211.239C1161.84 211.577 1161.77 211.94 1161.77 212.306C1161.77 212.672 1161.84 213.034 1161.99 213.371C1162.13 213.709 1162.34 214.016 1162.61 214.274C1162.87 214.532 1163.19 214.736 1163.53 214.876C1163.88 215.015 1164.25 215.086 1164.63 215.085ZM1185.01 104.586H1184.99C1184.24 104.587 1183.51 104.883 1182.98 105.407C1182.44 105.931 1182.14 106.641 1182.14 107.381C1182.14 108.121 1182.44 108.831 1182.98 109.354C1183.52 109.877 1184.24 110.171 1185 110.171C1185.76 110.171 1186.48 109.877 1187.02 109.354C1187.56 108.831 1187.86 108.121 1187.86 107.381C1187.86 106.641 1187.56 105.931 1187.02 105.407C1186.49 104.883 1185.76 104.587 1185.01 104.586ZM1185.01 122.073H1184.99C1184.24 122.075 1183.51 122.37 1182.98 122.895C1182.44 123.419 1182.14 124.129 1182.14 124.869C1182.14 125.609 1182.44 126.318 1182.98 126.841C1183.52 127.364 1184.24 127.658 1185 127.658C1185.76 127.658 1186.48 127.364 1187.02 126.841C1187.56 126.318 1187.86 125.609 1187.86 124.869C1187.86 124.129 1187.56 123.419 1187.02 122.895C1186.49 122.37 1185.76 122.075 1185.01 122.073ZM1185.01 139.561H1184.99C1184.24 139.562 1183.51 139.858 1182.98 140.382C1182.44 140.906 1182.14 141.616 1182.14 142.356C1182.14 143.096 1182.44 143.806 1182.98 144.329C1183.52 144.852 1184.24 145.146 1185 145.146C1185.76 145.146 1186.48 144.852 1187.02 144.329C1187.56 143.806 1187.86 143.096 1187.86 142.356C1187.86 141.616 1187.56 140.906 1187.02 140.382C1186.49 139.858 1185.76 139.562 1185.01 139.561ZM1246.15 180.112C1246.9 180.112 1247.63 179.818 1248.16 179.296C1248.7 178.773 1249 178.065 1249 177.326C1249 176.587 1248.7 175.878 1248.16 175.356C1247.63 174.833 1246.9 174.54 1246.15 174.54H1246.13C1245.38 174.542 1244.65 174.837 1244.12 175.36C1243.58 175.884 1243.29 176.593 1243.29 177.332C1243.29 178.071 1243.59 178.779 1244.13 179.3C1244.66 179.822 1245.39 180.113 1246.15 180.112ZM1246.15 162.618C1246.9 162.618 1247.63 162.325 1248.16 161.802C1248.7 161.28 1249 160.571 1249 159.833C1249 159.094 1248.7 158.385 1248.16 157.863C1247.63 157.34 1246.9 157.047 1246.15 157.047H1246.13C1245.38 157.048 1244.65 157.344 1244.12 157.867C1243.58 158.391 1243.29 159.1 1243.29 159.839C1243.29 160.578 1243.59 161.286 1244.13 161.807C1244.66 162.328 1245.39 162.62 1246.15 162.618ZM1245.04 144.91C1245.39 145.055 1245.76 145.129 1246.15 145.128C1246.55 145.127 1246.95 145.04 1247.31 144.875L1247.34 144.854C1247.68 144.697 1247.99 144.474 1248.24 144.198C1248.72 143.694 1248.99 143.032 1249 142.343C1249 141.604 1248.7 140.895 1248.16 140.373C1247.63 139.85 1246.9 139.557 1246.15 139.557H1246.13C1245.76 139.557 1245.39 139.629 1245.04 139.769C1244.7 139.909 1244.39 140.115 1244.12 140.373C1243.86 140.632 1243.65 140.939 1243.51 141.277C1243.36 141.615 1243.29 141.977 1243.29 142.343C1243.29 142.891 1243.46 143.428 1243.77 143.886C1244.08 144.343 1244.52 144.701 1245.04 144.914V144.91ZM1166.64 227.818C1166.55 227.747 1166.45 227.682 1166.35 227.623C1165.86 227.232 1165.26 227.013 1164.63 227.002H1164.61C1164.05 227.001 1163.5 227.163 1163.04 227.466C1162.57 227.769 1162.21 228.2 1161.99 228.705C1161.77 229.21 1161.72 229.767 1161.82 230.304C1161.93 230.842 1162.19 231.337 1162.59 231.726V231.732C1162.85 231.998 1163.17 232.209 1163.52 232.354C1163.87 232.498 1164.25 232.573 1164.63 232.573C1164.77 232.557 1164.91 232.53 1165.05 232.492H1165.06C1165.71 232.402 1166.31 232.088 1166.74 231.608C1166.8 231.53 1166.86 231.448 1166.91 231.364C1167.28 230.926 1167.48 230.374 1167.47 229.806V229.793C1167.46 229.117 1167.2 228.467 1166.73 227.967C1166.7 227.918 1166.68 227.859 1166.64 227.818ZM1164.63 180.112C1165.38 180.112 1166.11 179.818 1166.64 179.296C1167.18 178.773 1167.48 178.065 1167.48 177.326C1167.48 176.587 1167.18 175.878 1166.64 175.356C1166.11 174.833 1165.38 174.54 1164.63 174.54H1164.61C1164.24 174.541 1163.87 174.614 1163.52 174.754C1163.18 174.895 1162.86 175.101 1162.6 175.36C1162.34 175.62 1162.13 175.927 1161.98 176.266C1161.84 176.604 1161.77 176.966 1161.77 177.332C1161.77 177.698 1161.85 178.06 1161.99 178.398C1162.13 178.736 1162.34 179.042 1162.61 179.3C1162.88 179.558 1163.19 179.763 1163.54 179.902C1163.88 180.041 1164.25 180.113 1164.63 180.112ZM1205.39 209.513H1205.37C1204.61 209.515 1203.89 209.811 1203.35 210.336C1202.82 210.86 1202.52 211.57 1202.52 212.31C1202.52 213.051 1202.82 213.76 1203.36 214.283C1203.9 214.806 1204.62 215.1 1205.38 215.1C1206.14 215.1 1206.86 214.806 1207.4 214.283C1207.94 213.76 1208.24 213.051 1208.24 212.31C1208.24 211.57 1207.94 210.86 1207.41 210.336C1206.87 209.811 1206.15 209.515 1205.39 209.513ZM1205.39 157.05H1205.37C1204.61 157.052 1203.89 157.348 1203.35 157.872C1202.82 158.397 1202.52 159.107 1202.52 159.847C1202.52 160.587 1202.82 161.297 1203.36 161.82C1203.9 162.343 1204.62 162.636 1205.38 162.636C1206.14 162.636 1206.86 162.343 1207.4 161.82C1207.94 161.297 1208.24 160.587 1208.24 159.847C1208.24 159.107 1207.94 158.397 1207.41 157.872C1206.87 157.348 1206.15 157.052 1205.39 157.05ZM1205.39 174.543H1205.37C1204.61 174.545 1203.89 174.841 1203.35 175.365C1202.82 175.89 1202.52 176.6 1202.52 177.34C1202.52 178.08 1202.82 178.79 1203.36 179.313C1203.9 179.836 1204.62 180.13 1205.38 180.13C1206.14 180.13 1206.86 179.836 1207.4 179.313C1207.94 178.79 1208.24 178.08 1208.24 177.34C1208.24 176.6 1207.94 175.89 1207.41 175.365C1206.87 174.841 1206.15 174.545 1205.39 174.543ZM1205.39 192.029H1205.37C1204.61 192.031 1203.89 192.327 1203.35 192.851C1202.82 193.376 1202.52 194.086 1202.52 194.826C1202.52 195.566 1202.82 196.276 1203.36 196.799C1203.9 197.322 1204.62 197.615 1205.38 197.615C1206.14 197.615 1206.86 197.322 1207.4 196.799C1207.94 196.276 1208.24 195.566 1208.24 194.826C1208.24 194.086 1207.94 193.376 1207.41 192.851C1206.87 192.327 1206.15 192.031 1205.39 192.029ZM1205.39 139.564H1205.37C1204.61 139.566 1203.89 139.862 1203.35 140.386C1202.82 140.911 1202.52 141.621 1202.52 142.361C1202.52 143.101 1202.82 143.811 1203.36 144.334C1203.9 144.857 1204.62 145.15 1205.38 145.15C1206.14 145.15 1206.86 144.857 1207.4 144.334C1207.94 143.811 1208.24 143.101 1208.24 142.361C1208.24 141.621 1207.94 140.911 1207.41 140.386C1206.87 139.862 1206.15 139.566 1205.39 139.564ZM1225.77 122.076H1225.75C1225 122.079 1224.27 122.374 1223.74 122.899C1223.2 123.423 1222.9 124.133 1222.9 124.874C1222.9 125.614 1223.2 126.323 1223.74 126.846C1224.28 127.369 1225 127.663 1225.76 127.663C1226.52 127.663 1227.24 127.369 1227.78 126.846C1228.32 126.323 1228.62 125.614 1228.62 124.874C1228.62 124.133 1228.32 123.423 1227.79 122.899C1227.25 122.374 1226.53 122.079 1225.77 122.076ZM1205.39 110.157C1206.14 110.157 1206.87 109.864 1207.4 109.342C1207.94 108.82 1208.24 108.111 1208.24 107.372C1208.23 106.939 1208.12 106.514 1207.91 106.132C1207.89 106.098 1207.86 106.072 1207.84 106.038C1207.63 105.682 1207.35 105.377 1207.01 105.143C1206.54 104.797 1205.98 104.603 1205.39 104.589H1205.37C1204.62 104.591 1203.89 104.886 1203.36 105.41C1202.83 105.934 1202.53 106.644 1202.53 107.383C1202.53 108.121 1202.84 108.829 1203.37 109.35C1203.91 109.871 1204.63 110.163 1205.39 110.161L1205.39 110.157ZM1225.77 192.027H1225.75C1224.99 192.029 1224.27 192.324 1223.73 192.849C1223.2 193.373 1222.9 194.084 1222.9 194.824C1222.9 195.564 1223.2 196.273 1223.74 196.796C1224.28 197.319 1225 197.613 1225.76 197.613C1226.52 197.613 1227.24 197.319 1227.78 196.796C1228.32 196.273 1228.62 195.564 1228.62 194.824C1228.62 194.084 1228.32 193.373 1227.79 192.849C1227.25 192.324 1226.53 192.029 1225.77 192.027ZM1225.77 209.514H1225.75C1224.99 209.516 1224.27 209.812 1223.73 210.336C1223.2 210.861 1222.9 211.571 1222.9 212.311C1222.9 213.051 1223.2 213.761 1223.74 214.284C1224.28 214.807 1225 215.101 1225.76 215.101C1226.52 215.101 1227.24 214.807 1227.78 214.284C1228.32 213.761 1228.62 213.051 1228.62 212.311C1228.62 211.571 1228.32 210.861 1227.79 210.336C1227.25 209.812 1226.53 209.516 1225.77 209.514ZM1225.77 139.562H1225.75C1224.99 139.564 1224.27 139.859 1223.73 140.384C1223.2 140.908 1222.9 141.619 1222.9 142.359C1222.9 143.099 1223.2 143.808 1223.74 144.331C1224.28 144.854 1225 145.148 1225.76 145.148C1226.52 145.148 1227.24 144.854 1227.78 144.331C1228.32 143.808 1228.62 143.099 1228.62 142.359C1228.62 141.619 1228.32 140.908 1227.79 140.384C1227.25 139.859 1226.53 139.564 1225.77 139.562ZM1225.77 174.541H1225.75C1224.99 174.543 1224.27 174.838 1223.73 175.363C1223.2 175.887 1222.9 176.598 1222.9 177.338C1222.9 178.078 1223.2 178.787 1223.74 179.31C1224.28 179.833 1225 180.127 1225.76 180.127C1226.52 180.127 1227.24 179.833 1227.78 179.31C1228.32 178.787 1228.62 178.078 1228.62 177.338C1228.62 176.598 1228.32 175.887 1227.79 175.363C1227.25 174.838 1226.53 174.543 1225.77 174.541ZM1123.87 139.561H1123.85C1123.54 139.564 1123.23 139.625 1122.94 139.741C1122.69 139.83 1122.46 139.954 1122.24 140.109C1121.87 140.357 1121.56 140.689 1121.34 141.079C1121.13 141.468 1121.02 141.903 1121.01 142.345C1121.03 142.458 1121.05 142.57 1121.08 142.681V142.688C1121.16 143.346 1121.48 143.953 1121.98 144.397C1122.05 144.45 1122.12 144.499 1122.2 144.544C1122.39 144.694 1122.59 144.819 1122.81 144.919C1123.15 145.055 1123.5 145.125 1123.86 145.126C1124.62 145.126 1125.35 144.833 1125.88 144.31C1126.42 143.788 1126.72 143.079 1126.72 142.34C1126.72 141.601 1126.42 140.893 1125.88 140.37C1125.35 139.848 1124.62 139.554 1123.86 139.554L1123.87 139.561ZM1225.77 157.054H1225.75C1224.99 157.056 1224.27 157.352 1223.73 157.876C1223.2 158.401 1222.9 159.111 1222.9 159.851C1222.9 160.591 1223.2 161.301 1223.74 161.824C1224.28 162.347 1225 162.64 1225.76 162.64C1226.52 162.64 1227.24 162.347 1227.78 161.824C1228.32 161.301 1228.62 160.591 1228.62 159.851C1228.62 159.111 1228.32 158.401 1227.79 157.876C1227.25 157.352 1226.53 157.056 1225.77 157.054ZM1123.87 192.026H1123.85C1123.51 192.029 1123.17 192.096 1122.85 192.224C1122.69 192.29 1122.55 192.37 1122.41 192.463C1122.29 192.531 1122.17 192.608 1122.06 192.695C1121.88 192.846 1121.72 193.019 1121.59 193.211C1121.56 193.251 1121.53 193.293 1121.5 193.33C1121.35 193.563 1121.23 193.818 1121.16 194.086C1121.07 194.319 1121.02 194.562 1121.01 194.808C1121.01 195.327 1121.17 195.836 1121.45 196.274C1121.74 196.713 1122.14 197.064 1122.62 197.288C1123 197.479 1123.42 197.582 1123.85 197.59H1123.86C1124.62 197.59 1125.34 197.297 1125.88 196.774C1126.41 196.252 1126.71 195.543 1126.71 194.804C1126.71 194.066 1126.41 193.357 1125.88 192.834C1125.34 192.312 1124.62 192.018 1123.86 192.018L1123.87 192.026ZM1123.87 157.051H1123.85C1123.09 157.053 1122.37 157.349 1121.83 157.873C1121.3 158.397 1121 159.108 1121 159.848C1121 160.588 1121.3 161.297 1121.84 161.82C1122.37 162.343 1123.1 162.637 1123.86 162.637C1124.62 162.637 1125.34 162.343 1125.88 161.82C1126.41 161.297 1126.72 160.588 1126.72 159.848C1126.72 159.108 1126.42 158.397 1125.88 157.873C1125.35 157.349 1124.62 157.053 1123.87 157.051ZM1123.87 174.544H1123.85C1123.09 174.546 1122.37 174.842 1121.83 175.366C1121.3 175.891 1121 176.601 1121 177.341C1121 178.081 1121.3 178.791 1121.84 179.314C1122.37 179.837 1123.1 180.13 1123.86 180.13C1124.62 180.13 1125.34 179.837 1125.88 179.314C1126.41 178.791 1126.72 178.081 1126.72 177.341C1126.72 176.601 1126.42 175.891 1125.88 175.366C1125.35 174.842 1124.62 174.546 1123.87 174.544ZM1144.25 157.051H1144.23C1143.48 157.053 1142.75 157.349 1142.22 157.873C1141.68 158.397 1141.38 159.108 1141.38 159.848C1141.38 160.588 1141.68 161.297 1142.22 161.82C1142.76 162.343 1143.48 162.637 1144.24 162.637C1145 162.637 1145.72 162.343 1146.26 161.82C1146.8 161.297 1147.1 160.588 1147.1 159.848C1147.1 159.108 1146.8 158.397 1146.27 157.873C1145.73 157.349 1145.01 157.053 1144.25 157.051ZM1164.63 110.157C1165.38 110.157 1166.11 109.864 1166.64 109.342C1167.18 108.819 1167.48 108.11 1167.48 107.372C1167.48 106.633 1167.18 105.924 1166.64 105.402C1166.11 104.879 1165.38 104.586 1164.63 104.586H1164.61C1164.24 104.587 1163.87 104.659 1163.52 104.8C1163.18 104.941 1162.86 105.147 1162.6 105.406C1162.34 105.666 1162.13 105.973 1161.98 106.311C1161.84 106.65 1161.77 107.012 1161.77 107.378C1161.77 107.744 1161.85 108.106 1161.99 108.444C1162.13 108.781 1162.34 109.088 1162.61 109.346C1162.87 109.604 1163.19 109.809 1163.54 109.948C1163.88 110.087 1164.25 110.158 1164.63 110.157ZM1164.63 145.133C1165.38 145.133 1166.11 144.839 1166.64 144.317C1167.18 143.794 1167.48 143.086 1167.48 142.347C1167.48 141.608 1167.18 140.899 1166.64 140.377C1166.11 139.854 1165.38 139.561 1164.63 139.561H1164.61C1163.86 139.562 1163.13 139.858 1162.6 140.381C1162.07 140.905 1161.77 141.614 1161.77 142.353C1161.77 143.092 1162.07 143.8 1162.61 144.321C1163.15 144.842 1163.87 145.134 1164.63 145.133ZM1164.63 127.645C1165.38 127.645 1166.11 127.352 1166.64 126.829C1167.18 126.307 1167.48 125.598 1167.48 124.859C1167.48 124.12 1167.18 123.412 1166.64 122.889C1166.11 122.367 1165.38 122.073 1164.63 122.073H1164.61C1163.86 122.075 1163.13 122.37 1162.6 122.894C1162.07 123.417 1161.77 124.127 1161.77 124.866C1161.77 125.605 1162.07 126.312 1162.61 126.834C1163.15 127.355 1163.87 127.647 1164.63 127.645ZM1144.25 192.026H1144.23C1143.48 192.028 1142.75 192.324 1142.22 192.848C1141.68 193.372 1141.38 194.083 1141.38 194.823C1141.38 195.563 1141.68 196.272 1142.22 196.795C1142.76 197.318 1143.48 197.612 1144.24 197.612C1145 197.612 1145.72 197.318 1146.26 196.795C1146.8 196.272 1147.1 195.563 1147.1 194.823C1147.1 194.083 1146.8 193.372 1146.27 192.848C1145.73 192.324 1145.01 192.028 1144.25 192.026ZM1144.25 174.54H1144.23C1143.48 174.542 1142.75 174.838 1142.22 175.362C1141.68 175.887 1141.38 176.597 1141.38 177.337C1141.38 178.077 1141.68 178.787 1142.22 179.31C1142.76 179.833 1143.48 180.126 1144.24 180.126C1145 180.126 1145.72 179.833 1146.26 179.31C1146.8 178.787 1147.1 178.077 1147.1 177.337C1147.1 176.597 1146.8 175.887 1146.27 175.362C1145.73 174.838 1145.01 174.542 1144.25 174.54ZM1144.25 122.073H1144.23C1143.48 122.075 1142.75 122.371 1142.22 122.895C1141.68 123.42 1141.38 124.13 1141.38 124.87C1141.38 125.61 1141.68 126.32 1142.22 126.843C1142.76 127.366 1143.48 127.66 1144.24 127.66C1145 127.66 1145.72 127.366 1146.26 126.843C1146.8 126.32 1147.1 125.61 1147.1 124.87C1147.1 124.13 1146.8 123.42 1146.27 122.895C1145.73 122.371 1145.01 122.075 1144.25 122.073ZM1164.63 162.618C1165.38 162.618 1166.11 162.325 1166.64 161.802C1167.18 161.28 1167.48 160.571 1167.48 159.833C1167.48 159.094 1167.18 158.385 1166.64 157.863C1166.11 157.34 1165.38 157.047 1164.63 157.047H1164.61C1163.86 157.048 1163.13 157.344 1162.6 157.867C1162.07 158.391 1161.77 159.1 1161.77 159.839C1161.77 160.578 1162.07 161.286 1162.61 161.807C1163.15 162.328 1163.87 162.62 1164.63 162.618ZM1144.25 209.51H1144.23C1143.48 209.512 1142.75 209.808 1142.22 210.332C1141.68 210.857 1141.38 211.567 1141.38 212.307C1141.38 213.047 1141.68 213.757 1142.22 214.28C1142.76 214.803 1143.48 215.097 1144.24 215.097C1145 215.097 1145.72 214.803 1146.26 214.28C1146.8 213.757 1147.1 213.047 1147.1 212.307C1147.1 211.567 1146.8 210.857 1146.27 210.332C1145.73 209.808 1145.01 209.512 1144.25 209.51ZM1144.25 139.558H1144.23C1143.48 139.56 1142.75 139.855 1142.22 140.38C1141.68 140.904 1141.38 141.614 1141.38 142.355C1141.38 143.095 1141.68 143.804 1142.22 144.327C1142.76 144.85 1143.48 145.144 1144.24 145.144C1145 145.144 1145.72 144.85 1146.26 144.327C1146.8 143.804 1147.1 143.095 1147.1 142.355C1147.1 141.614 1146.8 140.904 1146.27 140.38C1145.73 139.855 1145.01 139.56 1144.25 139.558ZM1247.21 192.235C1246.92 192.128 1246.61 192.068 1246.31 192.058C1246.25 192.058 1246.2 192.027 1246.15 192.027H1246.13C1245.76 192.028 1245.39 192.1 1245.04 192.24C1244.7 192.38 1244.38 192.585 1244.12 192.844C1243.86 193.103 1243.65 193.41 1243.5 193.748C1243.36 194.086 1243.29 194.448 1243.29 194.813C1243.29 195.175 1243.36 195.532 1243.51 195.865C1243.62 196.084 1243.75 196.288 1243.91 196.472C1243.96 196.552 1244.02 196.631 1244.07 196.706C1244.56 197.206 1245.23 197.509 1245.93 197.556H1245.94C1246.02 197.562 1246.08 197.598 1246.15 197.598C1246.81 197.599 1247.45 197.375 1247.96 196.963C1248.47 196.552 1248.82 195.979 1248.95 195.344C1249.07 194.708 1248.97 194.05 1248.65 193.482C1248.33 192.915 1247.82 192.473 1247.21 192.234L1247.21 192.235ZM1205.39 227.002H1205.37C1204.74 227.013 1204.14 227.232 1203.65 227.623C1203.55 227.683 1203.45 227.748 1203.36 227.818C1202.89 228.292 1202.61 228.913 1202.57 229.57C1202.57 229.645 1202.53 229.709 1202.53 229.787C1202.53 230.119 1202.6 230.448 1202.73 230.757C1202.91 231.153 1203.16 231.514 1203.47 231.822C1203.69 232.03 1203.95 232.201 1204.23 232.327C1204.6 232.489 1204.99 232.573 1205.39 232.573C1205.79 232.573 1206.18 232.49 1206.55 232.328C1206.91 232.167 1207.23 231.931 1207.5 231.637C1207.76 231.343 1207.95 230.998 1208.07 230.624C1208.17 230.362 1208.23 230.085 1208.23 229.804V229.787C1208.23 229.049 1207.93 228.342 1207.4 227.82C1206.87 227.298 1206.14 227.003 1205.39 227.002Z" fill="#0F7AD3"/>
<defs>
<linearGradient id="paint0_linear_15_4" x1="705.5" y1="351.516" x2="705.5" y2="47" gradientUnits="userSpaceOnUse">
<stop stop-color="#F5F5F5" stop-opacity="0.651"/>
<stop offset="1" stop-color="white" stop-opacity="0"/>
</linearGradient>
<linearGradient id="paint1_linear_15_4" x1="705.5" y1="304.516" x2="705.5" y2="-2.03079e-05" gradientUnits="userSpaceOnUse">
<stop stop-color="#F5F5F5" stop-opacity="0.651"/>
<stop offset="1" stop-color="white" stop-opacity="0"/>
</linearGradient>
</defs>
</svg>
