<svg width="79" height="59" viewBox="0 0 79 59" fill="none" xmlns="http://www.w3.org/2000/svg">
<path d="M69.9048 0.628906H30.8841C30.1267 0.631647 29.3731 0.736636 28.644 0.941015H28.9571C29.0563 0.941039 29.1551 0.953961 29.251 0.979437C29.5103 1.05404 29.738 1.21139 29.899 1.42737C30.06 1.64335 30.1454 1.90602 30.1422 2.17506V8.59496C30.1474 8.91519 30.0261 9.22462 29.8043 9.45641C29.5826 9.6882 29.2783 9.82375 28.9571 9.8338H22.7813C22.6702 9.83104 22.56 9.81328 22.4537 9.78099V14.4243C22.679 14.4318 22.8924 14.527 23.0482 14.6894C23.204 14.8519 23.2897 15.0687 23.2871 15.2934V19.807C23.291 20.0325 23.2058 20.2505 23.0499 20.414C22.894 20.5775 22.6798 20.6734 22.4537 20.6809V29.5401L22.815 29.8954H29.7135C30.0721 29.9054 30.4124 30.0555 30.6611 30.3133C30.9098 30.5711 31.047 30.9159 31.0431 31.2735V38.4329C31.0483 38.7908 30.9115 39.1364 30.6625 39.3944C30.4136 39.6524 30.0725 39.8021 29.7135 39.811H22.9017L22.4537 40.2575V48.4204C22.4549 49.522 22.6741 50.6125 23.0986 51.6296C23.5232 52.6466 24.1447 53.5702 24.9278 54.3476C25.7108 55.1249 26.6399 55.7408 27.662 56.1599C28.684 56.5789 29.7789 56.793 30.8841 56.7898H69.9048C72.1343 56.7898 74.2725 55.9071 75.849 54.3357C77.4255 52.7643 78.3111 50.6331 78.3111 48.4108V9.01271C78.3111 6.79002 77.4256 4.65829 75.8493 3.08615C74.2729 1.51402 72.1348 0.630179 69.9048 0.628906Z" fill="#3022CD"/>
<path fill-rule="evenodd" clip-rule="evenodd" d="M4.21502 6.44873H1.09334C0.930636 6.45251 0.776034 6.52026 0.663233 6.63719C0.550432 6.75412 0.48858 6.91075 0.491167 7.07295V10.3189C0.48858 10.4811 0.550432 10.6378 0.663233 10.7547C0.776034 10.8716 0.930636 10.9394 1.09334 10.9432H4.21502C4.37772 10.9394 4.53232 10.8716 4.64513 10.7547C4.75793 10.6378 4.81978 10.4811 4.81719 10.3189V7.07295C4.81978 6.91075 4.75793 6.75412 4.64513 6.63719C4.53232 6.52026 4.37772 6.45251 4.21502 6.44873Z" fill="#4A3AFF"/>
<path fill-rule="evenodd" clip-rule="evenodd" d="M13.9799 32.5172H10.8582C10.6955 32.521 10.5409 32.5887 10.4281 32.7057C10.3153 32.8226 10.2534 32.9792 10.256 33.1414V36.3874C10.2541 36.4679 10.2682 36.5479 10.2975 36.623C10.3268 36.698 10.3707 36.7665 10.4267 36.8246C10.4826 36.8826 10.5496 36.929 10.6237 36.9611C10.6977 36.9932 10.7774 37.0104 10.8582 37.0116H13.9799C14.0608 37.0104 14.1408 36.9932 14.2151 36.9612C14.2894 36.9291 14.3567 36.8828 14.4131 36.8248C14.4694 36.7669 14.5138 36.6984 14.5436 36.6233C14.5734 36.5483 14.5881 36.4681 14.5869 36.3874V33.1414C14.5882 32.9788 14.5252 32.8222 14.4117 32.7054C14.2981 32.5886 14.143 32.521 13.9799 32.5172V32.5172Z" fill="#4A3AFF"/>
<path fill-rule="evenodd" clip-rule="evenodd" d="M13.0598 52.7229H8.86865C8.651 52.7178 8.44422 52.6271 8.29347 52.4705C8.14272 52.314 8.06028 52.1043 8.06416 51.8874V47.5418C8.06028 47.3248 8.14272 47.1152 8.29347 46.9586C8.44422 46.802 8.651 46.7113 8.86865 46.7063H13.0598C13.2774 46.7113 13.4842 46.802 13.635 46.9586C13.7857 47.1152 13.8681 47.3248 13.8643 47.5418V51.8874C13.8681 52.1043 13.7857 52.314 13.635 52.4705C13.4842 52.6271 13.2774 52.7178 13.0598 52.7229V52.7229Z" fill="#4A3AFF"/>
<path fill-rule="evenodd" clip-rule="evenodd" d="M20.7676 57.0445H18.0024C17.9309 57.0433 17.8604 57.028 17.7948 56.9995C17.7292 56.9711 17.6699 56.9301 17.6203 56.8788C17.5706 56.8275 17.5316 56.767 17.5054 56.7007C17.4792 56.6344 17.4664 56.5636 17.4677 56.4923V53.6113C17.4664 53.4677 17.5217 53.3294 17.6217 53.2261C17.7217 53.1228 17.8584 53.0629 18.0024 53.0591H20.7676C20.9115 53.0629 21.0483 53.1228 21.1483 53.2261C21.2483 53.3294 21.3036 53.4677 21.3023 53.6113V56.4923C21.3036 56.5636 21.2908 56.6344 21.2646 56.7007C21.2384 56.767 21.1993 56.8275 21.1497 56.8788C21.1 56.9301 21.0407 56.9711 20.9752 56.9995C20.9096 57.028 20.8391 57.0433 20.7676 57.0445V57.0445Z" fill="#4A3AFF"/>
<path fill-rule="evenodd" clip-rule="evenodd" d="M21.5769 20.4313H17.1979C16.9696 20.425 16.753 20.3292 16.5951 20.1647C16.4373 20.0002 16.351 19.7802 16.3549 19.5526V15.0102C16.351 14.7826 16.4373 14.5626 16.5951 14.3981C16.753 14.2336 16.9696 14.1378 17.1979 14.1315H21.5769C21.8052 14.1378 22.0218 14.2336 22.1796 14.3981C22.3375 14.5626 22.4238 14.7826 22.4199 15.0102V19.5526C22.4238 19.7802 22.3375 20.0002 22.1796 20.1647C22.0218 20.3292 21.8052 20.425 21.5769 20.4313V20.4313Z" fill="#4A3AFF"/>
<path fill-rule="evenodd" clip-rule="evenodd" d="M3.28072 32.7334H0.53481C0.389994 32.7296 0.25255 32.6689 0.152395 32.5646C0.0522408 32.4603 -0.00250309 32.3207 8.79582e-05 32.1764V29.2953C0.00374347 29.1551 0.0612459 29.0217 0.160746 28.9225C0.260245 28.8233 0.394144 28.766 0.53481 28.7623H3.29998C3.4448 28.7661 3.58224 28.8268 3.68239 28.9311C3.78255 29.0354 3.83729 29.175 3.8347 29.3193V32.2004C3.83729 32.3447 3.78255 32.4843 3.68239 32.5886C3.58224 32.6929 3.4448 32.7536 3.29998 32.7574L3.28072 32.7334Z" fill="#4A3AFF"/>
<path fill-rule="evenodd" clip-rule="evenodd" d="M24.9731 9.03203H27.6323C27.9556 9.02323 28.2624 8.88771 28.486 8.65488C28.7097 8.42205 28.8322 8.1107 28.827 7.78839V1.32526C28.8294 1.05516 28.7431 0.791704 28.5813 0.574994C28.4196 0.358285 28.1912 0.200202 27.931 0.124833C27.8335 0.0993687 27.7331 0.0864655 27.6323 0.0864258H21.4083C21.0854 0.0939881 20.7786 0.228457 20.5548 0.46052C20.3311 0.692583 20.2084 1.00342 20.2135 1.32526V7.78839C20.2083 8.1107 20.3309 8.42205 20.5546 8.65488C20.7782 8.88771 21.085 9.02323 21.4083 9.03203H24.9731Z" fill="#4A3AFF"/>
<path fill-rule="evenodd" clip-rule="evenodd" d="M21.442 32.0899V37.7415L19.8041 39.3933H16.8655C16.6721 39.3984 16.4886 39.4795 16.355 39.6189C16.2214 39.7584 16.1486 39.9448 16.1525 40.1376V43.979C16.1499 44.1709 16.2233 44.3561 16.3567 44.4946C16.4902 44.633 16.6729 44.7134 16.8655 44.7184H20.5748C20.7674 44.7134 20.9501 44.633 21.0836 44.4946C21.217 44.3561 21.2904 44.1709 21.2878 43.979V40.7186L22.733 39.2781H28.8126C29.132 39.2693 29.4351 39.1353 29.656 38.9051C29.877 38.675 29.998 38.3673 29.9928 38.0488V31.6625C29.998 31.3441 29.877 31.0364 29.656 30.8062C29.4351 30.5761 29.132 30.4421 28.8126 30.4333H22.6222L21.0614 28.8919V24.9737C21.0639 24.8583 21.0437 24.7436 21.0017 24.636C20.9598 24.5284 20.897 24.4301 20.8169 24.3467C20.7368 24.2633 20.641 24.1965 20.535 24.15C20.429 24.1035 20.3149 24.0783 20.1991 24.0758H15.6804C15.5642 24.0777 15.4495 24.1024 15.343 24.1486C15.2364 24.1948 15.1401 24.2616 15.0595 24.345C14.9789 24.4285 14.9156 24.527 14.8734 24.6349C14.8311 24.7428 14.8107 24.8579 14.8133 24.9737V29.665C14.8107 29.7811 14.8311 29.8965 14.8733 30.0046C14.9155 30.1128 14.9787 30.2116 15.0592 30.2954C15.1397 30.3793 15.236 30.4465 15.3426 30.4932C15.4492 30.5399 15.564 30.5653 15.6804 30.5677H19.9293L21.442 32.0899Z" fill="#4A3AFF"/>
<path fill-rule="evenodd" clip-rule="evenodd" d="M9.55749 12.9166L11.152 11.3321V6.06937L9.55749 4.4944H7.04766C6.8858 4.48938 6.73241 4.4211 6.62064 4.3043C6.50887 4.18751 6.4477 4.03157 6.45031 3.87019V0.624218C6.44839 0.54413 6.46231 0.46445 6.4913 0.38973C6.52028 0.315009 6.56376 0.246709 6.61923 0.18874C6.6747 0.13077 6.74107 0.084275 6.81458 0.0518887C6.88809 0.0195024 6.96731 0.00186952 7.04766 0H10.1693C10.2501 0.00124514 10.3298 0.0184176 10.4039 0.0505259C10.4779 0.0826342 10.5449 0.129037 10.6009 0.187069C10.6568 0.245101 10.7007 0.313616 10.73 0.388645C10.7593 0.463674 10.7734 0.543733 10.7715 0.624218V3.31318L12.5202 5.05621H17.3954H17.4628H17.4917H17.5158H17.5399H17.564H17.5881V5.08021V5.10423V5.12824V5.15224V5.17626V5.20026V5.22907V5.25308V5.28189V5.3059V5.33471V5.36351V5.39232V5.44034V5.46915V10.751V10.7799V10.8279V10.8567V11.4761V11.5049V11.5337V11.5577V11.5818V11.6106V11.6346V11.6586V11.6826H17.564H17.5399H17.5158H17.4917H12.525L10.7763 13.4208V16.758C10.7776 16.8381 10.763 16.9176 10.7334 16.9921C10.7039 17.0666 10.6599 17.1345 10.6039 17.192C10.548 17.2496 10.4813 17.2956 10.4075 17.3274C10.3338 17.3592 10.2545 17.3762 10.1741 17.3774H7.04766C6.88623 17.3737 6.73283 17.3064 6.62093 17.1904C6.50904 17.0743 6.44772 16.9189 6.45031 16.758V13.512C6.4477 13.3506 6.50887 13.1947 6.62064 13.0779C6.73241 12.9611 6.8858 12.8928 7.04766 12.8878L9.55749 12.9166Z" fill="#4A3AFF"/>
<path fill-rule="evenodd" clip-rule="evenodd" d="M9.7165 27.6243H5.5302C5.31256 27.6205 5.10528 27.531 4.95364 27.3753C4.80199 27.2197 4.71831 27.0105 4.72089 26.7936V22.4432C4.71827 22.2253 4.80163 22.0152 4.95302 21.858C5.10441 21.7008 5.31169 21.6092 5.5302 21.6029H9.7165C9.93458 21.6092 10.1414 21.701 10.292 21.8583C10.4426 22.0156 10.5249 22.2258 10.521 22.4432V26.7936C10.5236 27.0097 10.4406 27.2181 10.29 27.3737C10.1394 27.5292 9.9333 27.6192 9.7165 27.6243V27.6243Z" fill="#4A3AFF"/>
<path d="M39.5786 47C36.6915 47 33.8836 47 30.9806 47C33.1499 41.9844 35.2875 37.0415 37.4674 32C39.6736 33.4798 41.8113 34.9076 43.9806 36.3614C42.5027 39.9439 41.0512 43.4538 39.5786 47Z" fill="white"/>
<path d="M29.0336 23.4101C32.5132 24.6796 35.9981 25.9545 39.5995 27.2667C42.3218 20.8338 45.0281 14.4329 47.7451 8.01072C50.2449 8.01072 52.6759 8.02139 55.1068 8.00005C55.6576 7.99472 55.7159 8.40011 55.8589 8.74149C57.4372 12.4647 59.0154 16.1932 60.5884 19.9163C64.2534 28.5895 67.9184 37.268 71.5781 45.9412C71.7052 46.2452 71.8217 46.5493 71.9806 46.944C71.6946 46.9653 71.4721 46.992 71.255 46.992C68.7923 46.9973 66.3242 47.0133 63.8615 46.976C63.4431 46.9707 62.9664 46.8373 62.6222 46.6026C51.5637 39.0603 40.5158 31.4859 29.4678 23.9115C29.2931 23.7942 29.1395 23.6555 28.9806 23.5222C28.9965 23.4848 29.0124 23.4475 29.0336 23.4101ZM46.8077 29.9177C50.5309 31.2779 54.1164 32.59 57.6967 33.9022C57.7338 33.8489 57.7708 33.7902 57.8079 33.7369C55.7477 28.6535 53.6874 23.5702 51.6325 18.4868C51.5637 18.4975 51.4948 18.5028 51.426 18.5135C49.9007 22.2793 48.3753 26.0505 46.8077 29.9177Z" fill="white"/>
</svg>
